<svg xmlns="http://www.w3.org/2000/svg" viewBox="0 0 527.52 165.85"><defs><style>.cls-1{fill:#e6e6e6;fill-rule:evenodd}</style></defs><g id="圖層_2" data-name="圖層 2"><path class="cls-1" d="M489.53 141.11c-.45-.09-.79 1.09-1.27 2a8.56 8.56 0 0 1 1.16-3.39zm-5.27 2.17c-.22.11-.43-.49-.45.31-.44.78-.25-1.12-.43-1.46a4.8 4.8 0 0 1-1.67 2.29c.65-2.78-.25-2.65-.72-3.61.39-.05.67.45 1.36-.91-.44 1.9 0 1.15.28 2.15a5.11 5.11 0 0 1 .57-1.35c.14.87.48.91 1 .11a6.24 6.24 0 0 1 .06 2.47zM472.08 150c-.59 1-1.19.68-.93-.77.33.1.73-.15.93.77zm-6.9-9.95c-.16 2.18-.88.34-1.22.65.1-1.77.89-.4 1.22-.65zm.13-7.39c.54-1.33.55.81 1.16-1a5.35 5.35 0 0 1-.43 2.8c-.13-1.77-1.04-.06-.73-1.8zm-10.96 20.06c-.61.81-1.2 1.45-1.56.3.53-.21 1.12-.84 1.56-.3zm3.7-17.53c.36-.42-.38-1.29-.58-1.08-.06-1.84.51.32.85-1 .48.84 0 1.64.11 2.47a6 6 0 0 1-1.33 1.37c-.24-1.16.57-1.8.95-1.76zm-1.64-.75c-.23 2.18-1.22.63-1.79 1.71-.1-2.35 1.32-1.94 1.79-1.71zm-5.75 2c.13-1.15 1-2.63 1.32-1.4-.12 1.08-1.09 3.03-1.32 1.4zm-2.88 1.01c-.23.09-.46.2-.37.7-.74-1.61-1.89.59-2.66-1.08 1.36.22 2.47-3.84 3.03.38zm-3.32-.38c.21 1.29-.49.42-.73 1.41.51-2.16-.49-.15-.85-1.76.53-1.86.54 1.5 1.07-.36.14.54.28 1.06.51.71zm-1.83.71c-1 .56-1.48 3.32-2.08 1.76 1-1.18 0-2.35.93-3.52-.22 2.47.82.46 1.15 1.76zm-4.99 0c-.73 1.61-1.2.26-1.84.73a3.09 3.09 0 0 0 .2 2.49c-1.12 1-.74-2.57-2.18-2.09.43-1.51.39-.83 1.07-2.12.53 1.32-.27.42-.6 1.76 1.1.11 2.39-2.14 3.35-.77zm34.01-110.09c-.54.9-.91.49-1.39 1-.54-.73 1.14-1.35.6-2.08.36-.38.54.59.79 1.08zm12.07-18.38c-.89.82-1.55-.07-2.11-1.57.67.38 2.18.06 2.11 1.57zm-15.5 10.44c-.91 1.12-1.54-.26-2.53 1.68-.23-.84.3-1.64.45-2.46-.43-.68-1.35.56-1.15-1.11.48-.51.72 1.13 1.3-.3.05 2.5 1.29.54 1.93 2.19zM458 18c-.24 1.77-2.61 2.2-2.49 0 .76.24 1.49 1.27 2.49 0zm2.77-12.29c-.71 1.06-1.27.72-1.74-.75.58.33 1.24-.28 1.74.75zm-12.14 17.78c-.61.27-1.27 1.23-1.74 0 .61-.49 1.24-.93 1.74 0zm-6.48 2.8c-.45.62-.79-.27-1.24.35-.14-.59.37-1.18.65-1.77.2.47.44.95.59 1.42zm-2.52-1.06c-.55 1.27-.92 0-1.43.71-.15-.78 1.19-2.43 1.43-.71zm-9.74 4.68c-.76.43-.53-2.08-.16-2.83.86-.01.1 1.79.16 2.83zm1.64-4.26c-.93.59-2.28 1.62-2.5-1 .81.68 1.81-1.54 2.5 1zm-2.8 3.92c-.55-.31-1.15.33-1.66-.67.59-.38 1.13 0 1.74-.74.12.46-.28.94-.08 1.41zm-13.15 2.8c-.93 1-.17-2.73-.75-1.75.06-2.3 1.08.93.75 1.75zm-.79-1.04c-.52.48-1 .41-1.46-1 .52-.44 1.01-.08 1.46 1zm-33.68-21.4c-.87 2.15-1.45-.29-1.48-1.68.5-.02.99.93 1.48 1.68zm-16.9 2.17c-.73 1.38-.61-1.77-1.49-.24-.36 1.36.63.88.81 1.7-.68.87-1.22-.13-1.48-1.65.44-.16.62-.54.68-1.47-.71-1.74-1.45 1-2.16-.9.39 0 .78.31 1.18-1.15.92 1.71 1.8.91 2.33-.18 0 1.31-.78 2.66.13 3.89zm-6.31-.24l-.67 1.47c-.63-1.24-.66-.56-1-2.05.61-1.27 1.52 1.75 1-.78.46-.86.62 1.05.67 1.36zm-2.5 1.96a6.66 6.66 0 0 0-1-2.76c.16-.36.33-.73.5-1.09.16.45.33.52.5.31 0 1.34-.18.94.49 1.73-.3.62-.13 1.19-.49 1.81zm-2.65 1.62c-.55-1.32-1.1-.14-1.65-1.28.71-.88 1.43.73 2.15-1.24.3 1.55-.25.94-.5 2.52zm-2.64-3.32a2.26 2.26 0 0 1 .16 2.46 1 1 0 0 1-.66-.66 4.49 4.49 0 0 1 .5-1.8zm-.5 1.1c-.32.61-.15 1.19-.49 1.81-.32-.51-.15-1.51-.5-1-.17-.58.28-1.21.5-1.81zm-.99-2.75c.1.73-1.2 3-1.65 1.55.55-.7 1.1-1.9 1.65-1.55zM339 14.81c-.39-1.3-.77-.86-1.16-1.67.38-1.39.77.23 1.15-1.17a2.9 2.9 0 0 1 .01 2.84zm-5.07-.61c-.43.89-.87.93-1.32.11l.65-1.47c.22.45.45.9.67 1.36zm-3.13.62a11.39 11.39 0 0 1-2 .9c-.54-.78 1-1.75.47-2.53.41-.41.33.57.5 1 .37.4.69-.85 1.03.63zm-2.17-3.69c-.38.67-.78-.92-1.16-.25.08-1.33.51-1.55 1.14-1.88.3.69-.42 1.46.02 2.13zm-3.72 5.67c-1-2-2 .12-3 .28-.67-2.14 1.18-2.55 1.58-4.41.17 2-.08 2.19 1 2.74.69-1.59.58-2.69 1.44-2.62.24 2-.15 2.44-1.02 4.01zm-.22-4.59c-.71.56-1.43-.28-2.13.56.05-1 1.5-2.58 2.13-.56zm-3.48-1.45c-.26.71-.54.37-.8 1.15-.47-1 .38-2.17-.21-3.18.32-.27.66 0 1 .61-.68 1.2-.7.35.01 1.42zm-4.77.11c-.25.92-.53.75-.8 1.15.12-.84-.3-1.63.13-2.51.07 1.3.23.4.67 1.36zm-56.17 13.27c-.77 1.23-1.61.42-2.47-.76.68-.65 1.35-1.76 2-2a24.12 24.12 0 0 1 .47 2.76zm-15.96-4.78c-.31 1.49-.76-.09-1.11.5-.29-.98.8-1.97 1.11-.5zM227.9 22.9c.06 1.4-1.33 1.58-1.94.25.62-.6 1.29-.15 1.94-.25zm-7.9 1.4c-.81-.9-2.23-.78-2.54-2.16.77-.14 2.21.11 2.54 2.16zm-15.95-1.4c-.55.89-1.18.15-1.75.6-.1-1.11 1.17-2.13 1.75-.6zm-16.47 6.59c-.1-.81-.54-1.57-.63-2.4.31-.28.65 0 1 .57-.27.64-.07 1.2-.37 1.83zm-48.17 124.32c-1.18 1.11-2.65-1.94-3.83-.82.42-2.74 2.61-.17 3.83.82zm-4.06-1.81c-.44 1.17-1 .92-1.61-.46.5-.38 1.04-.25 1.61.46zm21.73-126.23a2.72 2.72 0 0 1 0-1.8 3 3 0 0 1-2.61-.31 2.34 2.34 0 0 1 3.21-.49c-.51.92-.27 1.72-.6 2.6zm-4.8 5.72c-.05-1.07-.85-2-.37-3.16.65-.05.8 1.98.37 3.16zm1-6.94c.2.57-.2 1.23-.37 1.85a4.4 4.4 0 0 1-.78-2c.33-.71.87 1.34 1.15.15zm-38.79-3.24c-.55.73-.92-.84-1.25-1.59.3-.29.65 0 1 .56-.11.37.14.72.25 1.03zm-2.74-4.2c-.38.7-1.1-1.45-1.13-2 .69-.11 1.04.69 1.13 2zM109 19.68c-1.32 1.08-2.79.17-4.22 0 .19-1.71-.66-1.26-1.31-2.29 1.97-.15 3.38 1.8 5.53 2.29zm-4.89-.63c-.52 1-1.22-.44-1.85-.78.54-.78 1.14-.77 1.85.78zm-2.48-.67c-.65.1-1.23 1-1.93.31.03-1.21 1.17-2.02 1.93-.31zm-1.57 2.76c-.8.2-1.06 1-1.49 1.67-.56-1.43-.88-1.47-.6-3.48.3 2.37 1.37.67 2.09 1.81zM97.55 1.52c.32 1.57-.88.93-1.28.22.2-.94.48-.79.72-1.19.35.45.26 1.45.56.97zM91 15.83c.19.2.13.45.06.7l-.26.76c-.57-1.61-2.12.07-3.25-2a1.44 1.44 0 0 0 .08-1.09c.82.82 1.56.57 2.41 1.75.67-1.86-.47-1.21-.55-2.77.29-1.2.93 2.07 1.21.87.3.41-.48 2.65.3 1.78zm3.6-14.54c-1 .29-2 .17-3.19-1.26a4.51 4.51 0 0 1 3.19 1.26zM86.76 15.1c-.53-.07-.34 2.35-1.11 2.33.18-1.45 0-2.27-.87-2.72.58-.91 1.29-.13 1.98.39zm-1.32-2.29c-.68.92-1.54-.26-2.36-1 1.06-.76 1.34.4 2.36 1zm-7.24.86c-.24-.56.33-1.26 0-1.8 1.07-.27 2.43 3.1 3.33.88.29 3.9-2.39-.53-3.33.92zm3.54-2.39c-1 1.22-2.34-.87-3.57-1.91 1.03-1.37 2.37 1.05 3.57 1.91zm-3.03-5.22c.25 1.88-1.18 0-1.66-.44.46-1.05 1.18 1.21 1.66.44zm-.46 2.22c-.87.62-1.69 1.87-2.82-.6 1.05 1.51 1.77-.97 2.82.6zm-4.45 3.26c.82-1.81-.44-3.19-1-2.34-.32 1.45.53 1.78 1 2.34-.28 1.76-.92-.62-1.22.92-.54-3.11-3-6.3-4-7.55-.15-2.51 2.34 1.66 2.54 3.15 0-2.1 1.18-.6.6-2.6 1.38 2 2.6 4.58 4.55 7.82-.71 1.18-1.57-.09-2.47-1.74zm-4.65-3.15c.21.56-.17 1.22-.34 1.84-.45-.22-1-1.49-1.4-1.19-.11-.58.1-1.21-.31-1.74.29-.39.61-.47.91-.87.51.88.34 3.12 1.14 1.96zm-1.69 3.15a1.58 1.58 0 0 1-1-2.33c.67.71.54 1.57 1 2.33zm-1.32-4.07c.43 1.64-.71.25-.84 1.57-.26-1.33-.08-1.41-.82-2 .44-1.18 1.13.61 1.66.43zM393 13.16c.19.67-.45.34-.19 1.07-1.76-3.32-3.69-.61-5.5-2.19 1.6-1.38 3.17-1.17 4.74-.95.16.47-.19.95-.37 1.44.39.09.82.95 1.32.63zM485.85 142c-.64.84-.66-.8-1.09-.82.45-.07 1.03-.63 1.09.82zm-22.71-10.16a5.1 5.1 0 0 1 .17 1.77c-.29.37-.39-.6-.56-1.07a4.46 4.46 0 0 1-.48 1.38c-.15-1.36.39-1.38.87-2.08zm-8.28 10.31c-.71 1.59-.23-.9-.38-1.42-.3-.84-.19 1.09-.74 1.39-.5-2.09-1.35-1.61-2.21-.74-.06-.71 0-1.41 0-2.12a1.74 1.74 0 0 0 3 .41c.05 1.61.47 1.33.33 2.48zM446 153.64c-.59 1.37-2.16 1.14-3 .34 1-.04 2-.32 3-.34zm3.94-18.64c.34.6-.2 1.18-.05 1.76-.41.63-.65-.23-1-.36-.12-1.05.62.52 1.05-1.4zm-17.1 5.3c.38-1.29-.72-.6-.41-2.11.43-1 .6 1.09 1.06-.36-.26 1.46.48 2.16-.35 4.23-.34-.7-.69-1.15-1.12-.69-.23-.93.6-.55.82-1.07zm-2.77 1.45c-.77 1.15-1.24-1.51-2.11.74-.38-1.32.48-.93.28-1.77.62.39 1.26.18 1.83 1.03zM427.1 140c.33-.59.22-1.18.58-1.77.78.91 1.64.59 2.56-.4-.39 3-1.62.61-2.47 3.22-.36-1.81-.95-.64-1.54.74-.84-.53-.77-1.37-1.46-2.43.32-.35.62-.38.94-.73.37.58-.15 1.18 0 1.76.14.21.3 0 .42.35.23-.72-.23-1.41.46-2.13.41.14.53.5.51 1.39zM488 6.81c.11.49-.16.55-.24.34-.36.45-.72.89-.59 1.37-.38.34-.56-.64-.82-1.13.56-.49 1.06-.31 1.65-.58zm-19.44 8.36c.19.92-2.68 2.61-3.35.59.3-.31 1.31 1 1.17-.67.81-.81 1.25 1.91 2.18.08zm-9.74 4.97c-.8.62-1.4 3.22-2.26 1.37.48-2.78 2-.39 2.11-3.49.73.72-.58 1.4.15 2.12zm-20.07 2.97c-.1 1.31-1.55.93-2.16 1.43 0 2.11-1.47 3.6-2 4.26a44.38 44.38 0 0 1 1.27-6c-.13 3.56 1.13-.54 2.26-.38-.01.9.14 1.23.63.69zm-6.12 6.77c-.33 1.45-2 .82-2.82 1.44-.43-1.29 1.23-.62.81-2.13.28.45 1.16 1.81 2.01.69zm2.09-5.68c.63.91-.16 1.25-.39.72a2.5 2.5 0 0 0-.29 1.77c-.31.34-.57-.06-.88.36.35-.61.75-2.95-.45-1.06-.14-.59.36-1.18.63-1.77.4.85.86.85 1.38-.02zm-8.84 1.9c.3-.34.56.06.87-.37.6.81-.23 1.65.37 2.46-.55-.11-.5-.99-1.24-2.09zm-6.69-15.39c0 1.3.22.41.62 1.39-.7.85.29 1.64-.65 2.49l-.45-1c.37-.94.72-2-.28-1.41-.34-1.02.57-.18.76-1.47zM517.72 113c-.93 1-1.31.88-1.3-.1.36.17 1.44-1.14 1.3.1zm.46-3.6c-.24-.53-1.47 1.12-1.41-.09.59-.26 1.73-1.67 1.41.09zm-5.8 4.84c-.73.65-.3-.43-.78-1 .55-.77.7-.51 1.06-.79.03.66-.33 1.16-.28 1.79zm3.27-5.24c-.21 1-1.57 1.8-1.39.68.52-1.24.5-.29 1.38-1.43-.17.48-.33.99.01.75zm-11.44 6.46c-.23 1.24-1.35 1.51-1.11-.21.9-1.48.35 1.37 1.11.21zm-2.11.66l-1 1.25c.14-.51.29-1.49-.09-1.09.11-1.02 1.29-1.65 1.09-.16zm1.15-9.83c-.56.31-.88-.15-1-1.29.5-.17 1.48-.42 1 1.29zm-4.65-.1c-.54.09-1.48 1.75-1.49-.25.61-.36 1.23-.74 1.49.25zm-20.13 20.61c-.72.57-.33-1-.94-1.85a1.19 1.19 0 0 0 .7-.66c-.23 2.33.84.54.24 2.51zm16.16-26.21c.08-1.14 1.18-1 1.9-2.59.09 1.61-1.3 2-1.9 2.59zm-5.9 1.73c-.49-.19-1.12.36-1.4-.86.72-.46 1.33-.35 2.14-1.19.39.73-1.13 1.3-.74 2.05zM497 83.1c-.61 1.22-.75.31-1.3 1.25-.39-1 .22-1.87.94-2.73zm-6.3 8.09c-.73 1.43-1.07 1-1.56 1.25.02-1.09 1.55-2.9 1.56-1.25zm2.55-7.52c-.19.35-.26.17-.33 0-1.67 1.6-2.64-.28-4.22.94-.5-1.24.19-2.35 0-3.55.94-1 .36 1.26 1 1.17.79-.83.53-1.7 1.16-1.64-.35 1.9.7 1.5 1 2.59.65-1.26 1-.82 1.51-1.6.63.75-.72 1.31-.12 2.09zm19.56-29.1c-.84.63-1.87 2.11-2.1.31.73-.25 1.66-1.25 2.1-.31zm.8-2.38c0 1.27-1.33 1.05-1.45.09.93-1.8.84.35 1.45-.09zm-3.4 2.24c-.31-.9.09-1.66 0-2.52.41-.27.63.19 1.06-.17a4.45 4.45 0 0 1-1.06 2.69zm-13.39 8.35c-.86 1.28-2.62-.09-1.25-1.93.16 1.95.87 1.09 1.25 1.93zm-15.95 21.06c-.43 1.87-1.92 1.74-2.28-.19a1.38 1.38 0 0 0 .22-1.4c1.04-1.59 1.13 2.58 2.06 1.59zm28.73-41.33c-1.16 1.55-1.91 1.36-2.49.32.69.51 2-1.73 2.49-.32zm-20.77 20.78c-.67 1.5-.71-.61-1-1.16a1.26 1.26 0 0 0 .82-.63 3.86 3.86 0 0 0 .18 1.79zm2.09-15.04c-.9.31-1.9-.88-.85-2.57.51 1.17.83.89.85 2.57zm-32.7 41.1c-.81 1-1.43-.57-1.56-1.81.72-.17 1.52-.12 1.56 1.81zM472 64.83c-.63.09-.26.47-.86 1.37a8.84 8.84 0 0 1 .16-2.46c.31-.36.46.61.7 1.09zm-15.87 3.63c-.75.29-1.49.47-2-1.11.57.65 2.03-.71 2 1.11zm-17.95 10.43l-.75 1.41c0-.52 0-1-.27-.69-.16-1.09.89-1.98 1.02-.72zm-2.45-8.11c-.27 0-.6.76-.84.37-.44-1 .2-2.51.68-2.49.67.7-.51 1.42.16 2.12zm-23.36 3.71a.7.7 0 0 1 0-.71c-.2-.35-.44.37-.68.73-.36-.4-.07-2.49-.72-1.74-.49-1.26.9-.44.39-1.42a2.23 2.23 0 0 1 1.01 3.14zm-1.66-2.41c-.25.74-.45.41-.65 0a2 2 0 0 0-.39 1.42c-.28.38-.5-.57-.75-1 .29-.6.59-1.2.89-1.8.26 1.3.62.4.9 1.38zm-4.01 6.86c-.45.47-.85 0-1.25-.66.48-1.28.87-.41 1.25.66zm18.79-43.29c-1.43-.67-1.86.52-.66-3.17.65 1.04.5 2.11.66 3.17zm-23.57 42.8c-.58 1.07-1.11 1.09-1.61.07.55-.3 1.12-1.28 1.61-.07zM394 82c-1.43-1.93-2.8-.23-3.58-3a4.92 4.92 0 0 1 3.48 1.22c.18-.48-.13-.93-.28-1.4 1.1-1.28 1.03 1.55.38 3.18zm-7.31-2.4c-.22.48-.45 1-.68 1.44-.29-.57-.11-1.16-.43-1.74.42.27.76-.63 1.11.3zm16.54-39c-.21-.82.24-1.66-.41-2.46.81-.44 1.63 2.2.41 2.46zm122.7 70.52c.63-.6.41-1.62 1.4-2.06-.11.7.31.5.16 1.25-1.23-.37-2.84 5.62-1.61 1.18-1.33-.29-2.19-1.47-4.2-.4.2-1.57-.26-1.16-1.12 0 .1-.45.61-.76.65-1.25-.18-.85-.79 1.13-1.48 1.32.64-1.56.29-1.48.77-4.24.79-.37.61 1.29.76 2.18 1.32-1.61 1.15-.26 1.42.16 1.22-1.25 2-1.24 2.55-1.11s1 .45 1.62 0c-.15 1.61-2 1.93-2.22 1.68-.27 1.59 1.66-.52 1.3 1.29zM509 118.76c-1 .65-1.57.17-2.08-.5.73-.55.64-1.29 1.26-1.86-.78 2.86.7 1.12.82 2.36z"/><path class="cls-1" d="M505.67 118.32c-.37-.1-.24-.93.45-1.7-.06-.38-.47.24-.76.55-.22-.91.19-1.66.14-2.52-.82-.14-1.87.31-2.29-1.17-2.07 3.22-2.16 0-3.46.75-.73 2.74 1.25 1.29.64 3.72-.59-.69-1.28-.48-1.94-.47s-1.32-.14-1.81-1.62c-.83 1.43-1.44 2.68-1.59.47-.76 1.43-1 3.17-.57 3.83-.48.92-.41-.24-.77.24.57-1.11 0-2.39.88-3.43-1.42 1.62-1.74-1.09-2.87-.77 1 1.61 1.36 3.25 1.62 3.43-.53 1.21-1 .88-1.35.13a18.45 18.45 0 0 0-1.17-2.26c-.5 1.78-1.35 1.15-1.81.84 0-.48.4-.89.32-1.38-.1-.23-.29 0-.35-.4-.18.57-.08 1.17-.53 1.71-1.19-.1-2-1.7-3.21-2.14a6.9 6.9 0 0 1-.36 1c1.15.85 1.29 2.12 2.26 3.09a1.52 1.52 0 0 1-1.64.6 1.79 1.79 0 0 0-1.5.18c-.08-1.3.52-.37.86-1.33-.06-.9-.34-.73-.5-1.12-.88 1-.77 2.77-1.44 2.7-.15-.61.11-1.17-.07-1.77.21-.32.25.17.36.38.49-.77 1-3.53.86-1.33 1.25-1.8.4-2.73-.24-2.5.51 1.14-1.08 1.15-.84 2.74-.51.6-.41-1.9-.88-1.49a2 2 0 0 0 .52 2.53c.17 1-.72 1.81-.55 2.77-.7.83-.9-.82-1.63.2-.28 1.53.35 1.13.3 2.86-.91 1.94-.9-.79-1.74.9 0-1.29.74-.55 1.24-2-.43 0-.8-.3-1.33.23.9-1.35.72-2.2.87-3.81-.1-.23-.29 0-.36-.39-.77.63.08 1.42-.68 2.06-.19-2.34-3.92-.91-4.12 1.82-.16-1.31-.77-.68-.5-2.17-.94 1-.62 2.08-1.25 3.09.77-.3 1.24 1.18 2.08.51a2 2 0 0 1-3.17.83c-.39.68 0 1.42-.63 2.08-.41-1.13-.85-2.37-2.09-.48.21-1.8-.44-1.59.26-3.51-.67 1.49-.86-.82-1.85.61.82-2.52-1-1.12-.75-2.86-1.21 1 .3 2.13-.61 3.15-.22-1.46-.65-1.55-1.15-1.12a18.42 18.42 0 0 0-.21 2.46c1.34 1 3-.25 3.82 1.6-.54 1.32-.55-.81-1.17 1-.62-2.05-1.65-1.54-2.68-.94s-2.05 1.28-2.78-.37c-2.34 3.46-5.22-.41-6.57 3.32a8.33 8.33 0 0 0-1.84.66c0-2.69-1.24-.78-1.89-1.44-.13.59 0 1.18-.35 1.76.16-1.85-.89-1.93-1-.37-1.39-2.15-3.31.88-4.81-.41.57-1-.19-1.63-.38-2.12-.35.83.45 1.65.19 2.47-1.56 1.73-2.71-.54-4.08-.71-.22 2.66-1.89 2.79-2 1.06-.42 1.28-.63.41-1 1.4-.39-3.88-3.95 1.65-5.37-1.69-1.63 3.93-3.53-2.5-4.89 1.48.48-.4.89.15 1.32.32-.49 1.95-1.77-.78-3 .08-.51.34-2.37 2.53-2.28.4-.24-.82-.67 1.1-1 1.43-1-1.37-2.08-.12-3-1.68-1.34 1.39-4 1.05-5.95 1.26-25.67 4.9-51.4 6.9-77.4 7.38s-52.22-.44-78.6-1.13a3.11 3.11 0 0 0 .25 2.46c3.86-2.65 8 1.53 11.83-.76.33 1.44.53 1.24 1.15 1.63.13-.7-.27-.28-.51-1 .6-.9 1.31 1.7 1.87-.23.49.89 0 1.9.4 2.8 1.59-3.54 4.27-2.56 6.51-.78 1.74-.64 3.48-1.81 5.29.07a1.41 1.41 0 0 0 .13-1.07c2.78 1.94 6.6-.85 8.43 1.87.42-1 0-1.31.59-1.49.17.46-.13 1-.28 1.45 3.47-2.48 6.31 1.92 9.9-1.1.35 2.32 2.09.06 2.95 0 1.43-.05 2.46 2.29 3.1.37 1.26 1.48 2.5 1.52 3.7-.38.7.63-.35 1.45.35 2.08.15.82 1-1.19.59-1.48.85 1.82 1.65.11 2.49 1.16a1.46 1.46 0 0 0 0-1.42c1.11 1.82 2.17.49 3.26 1.44.1-2.67.09-.28.91-1.51 0 .92.39 1.73.79 1.7a4.56 4.56 0 0 1 .45-1.82c.73 2.64 2.23-1.07 3.71 1.74a2.69 2.69 0 0 0 .14-1.78c1.82.74 6-.18 6.49 1.5.92.34 1.83-2.05 2.77.44.85-1.72 2.39-2.76 2.76-1 5.79-1.49 11.06.28 17-1.16.29.45.11.93.3 1.39.48-1 .64-.68 1.39-1.89 3.15 2.16 7.67-2.11 11.29 1.23.3-.61.15-1.19.48-1.8 1.42.31 2.83 1.24 4.26.39-.08 1-.51 4.08.82 4.9.44-1.44.11-2.26 1-2.9.25-1.11-.75-2.48-1.05-1-.51-1.69 1.09-2.51.93-.77 2-2.76 3.82 1 5.82-1.82.36 2.43 1.67 1.6 2.6-.53a1.47 1.47 0 0 1 0 1.41c1.75-1.24 3.44-.38 5.21-1.73.12.58-.07 1.18.09 1.76 2.53-1.3 5.8 1.13 7.79-2.21.13.35-.1.71-.19 1.07 2.74-.73 5.41.38 8.21-1.83 1.84 1.55 5.11 0 7.54-.33.52.81-.22 1.66.3 2.46.2.15.38.31.6 0-.34-3.89 2-1.85 2.86-2.93.15 1.92-.7.38-1 1.46-.36 1.51.61 1.06.81 1.38 1.29-4.6 3.11-1.8 4.71-3.7.52.81-.22 1.65.29 2.46.18.29.42-.47.59 0 .2-.59-.17-1.18-.32-1.76.5-.94.95-.91 1.31.32 0 .71-.6 1.43-.14 2.12-.35.71-.56-.5-.94.73.4 1.44 1-.53 1.38 1.38.64-2.09 1.06-1.1 1.58-1.45.26-1.76-1 .39-1.26-1 1.13-2.38-.34-.91-.62-1.76 1.62-2.55 1.27.34 2.78-1.47.2.7-.52 1.41-.45 2.12.13.33.31-.16.47-.36.16.92 0 1.3-.4 1.41.6 2 1.4 1.21 2 3.13a2.48 2.48 0 0 0 .75-2.13c.64 0 1.07 2.92 1.8 1.71.39-.71-.35-1.4-.43-2.1.57-1 .83.81.6 1.75.35 1.08 1-1.45 1.34-.37.23-.71-.22-1.41.47-2.12.44 2.69 2.62 3.34 2.88.66.62.21 1.37-1 1.82 1 1.06-2.84 1.94.48 2.54-2.15.35 4.23 2.9-2.21 3.82 1.06 1.31-.93 2.41.19 3.75-1.07.52-1-.73-.11.15-1.4 1.57 3.34 4-1.19 5.69.78-.32.67-.52.31-.85 1-.17.47.08.95-.16 1.42.9-.31 2-2 2.84-2.08 0 .88-.33.68-.56 1-.42 1.28.69-.27.69 1.42.16-.93.34-1.28.73-1.39.22 4 2.42-1.29 3.2 1.5a2.84 2.84 0 0 0 .38-2.8c.54-1.26.75 0 1.22-.67.07.58-.4 1.16-.66 1.74.18 1.5.6 1.11.94 1.44a2.74 2.74 0 0 0 0-2.12c.8 1.38 2 .2 2.89.45.26-.69-.11-1.42.59-2.09 0 3.67 3.33 1.32 4 3 .59-1.71 1.63-1.2 1-2.78.66-.34.56.61.41 1.79.52.28 1.27-3.3 1.78-1.65-.47 1.18-.54 0-.93.63a1.52 1.52 0 0 1 0 1.07c1.36 0 3.07-2 3.92.95a8.74 8.74 0 0 1 1.18-3.45c.22 1.08-.52 2.08-1 3.11.19 2.89 1.77-1.61 2 .85 1-1.21.16-2.58.86-3.81.23 1.31-.27 2.56-.34 3.85.24 1.3.77-1.29.91-.63a3.44 3.44 0 0 0-.05-1.77c.55-.44 1.07.63.57 1.82 1.39-2.26.94-.15 2.13-2.65.58 1.46.77.93 1.85.16-.09.93-.75 1.81-.34 2.79l-1 1.68c-.49 0 .16-1.83-.78-.06a1.72 1.72 0 0 1 .29-1.39c-.83 0-3.18-1-3.4 2.54-.42.79-.31-1.12-.5-1.45a3.33 3.33 0 0 0-.23 3.15c-.35.41-1.6.1-.75-1.47-.44-.6-1.32.92-1.52-1.16-.39.8.25 1.66-.05 2.46-.71 1.38-1.58-1.42-1.77 1.66-.48.79-.27-1.11 0-1.41-.47-.12-1 0-1.64 1 0-.59.23-1.16.17-1.75s-.66.22-.87-.4a9.26 9.26 0 0 0-.16 1.75 2.24 2.24 0 0 0-1.54-1.22 3.46 3.46 0 0 0-1.84.34c-.47 1 .4.14.32 1.42-.56 1-.72-.6-1.38 1 .42.81.94.9 1.74-.63 0 1.48.45 1.38 1 1.16s1.17-.58 1.42.38c-1.86.78-3.35-.09-4.92.47-.12-1.29.48-.4.76-1.38-.57-2-1.36 3-1.92 1 .32-.33.6-.34.92-.67-.08-1.86-.79.41-.87-1.45a2 2 0 0 0-.13 1.76c-.24.12-.38-.46-.73.32.07-1.21-.53-1.49-1.3-1.39a8.11 8.11 0 0 0-2.34.92c-.48 1.67.73-.74.73.72a7 7 0 0 0-5.71.21 3.45 3.45 0 0 0 .19 1.76c-.8 1.75-.93-.7-.74-1.77-.79-.43-.26 2.07-1.19 2.8-.68-.82.76-1.64.44-2.47-1.19.11-2.11-2.07-3.56.33-.14-2.49-.8-1.35-1.46-2.13-.59.69-.32 1.4-.79 2.1-.72-1.52-1.68-1.14-2.6-1.06-.35 1.33.66.89.9 1.05-.75 1.44-1.72.43-2.33-1.05-.63.83-.05 1.65-.68 2.47.28 1.17 1 .24.83 1.76-1.81.13-2.9-.83-4.29-2.8-.9 1 .3 2.11-.44 3.17-1.49-.2-3-.61-4.72 1.47-.56-2.3-1.27-.38-1.73 0-.22-.71.33-1.42-.11-2.12-1.3 2.35-3.61-1.45-4 1.84-1.78-.36-4.47 1.82-5.66-.2-1 2-1.82-.12-2.93 2.56-.51-2-1.26-.18-1.75-2.4-.58.73-.26 1.42-.72 2.15-1.72.09-3.41-.06-5.13.07a10.38 10.38 0 0 0-5.24 1.77c-.05-.92-.37-1.74.23-1.78-2.92 1.39-5.81 2.49-8.63 1.15-.66-.86-1.46 1.78-2.14 1.53-.11-.47.23-1 .06-1.42-.92.77-2.08 1.71-3.27.19-.33.72-.65 1.45-1 2.17-3-1.73-6.07-.23-9.12.94a9.55 9.55 0 0 0-.12-1.06c-5.35 1.88-10.61.59-16 1.89-.78-2.17-4.46.07-6.79.2-1.26.06-2.22-1.24-3.18.62l-.6-1.37c-.64 2.65-1.95-.82-3 1.68-2.51-2.34-6.23 1-9.25-.94l-.61 1.47c-3.9-2.24-7.81 1.07-11.73-1.35-1.71 2.32-3.47-1.05-5.18 1.23-1-2-2 .59-3.07-1.11-2.83 1.66-5.7 1-8.57.19-6.32 1.12-12.72-1.15-19.06 0l-.65-1.35c-.28-.33-.27.63-.13 1.08-3.4-1-5.85-.65-9.3-1.75l-.57 1.49c-.65-.18-.3-2.58-1.27-1.27-.15.7.26.28.49 1-.41.48-1.09.17-1.11-.93-25.06 1-49.72-4.9-75.07-6.12l-.52-1c-3.38 1.22-7-2.16-10.33.06-.62-.4-1.25-2.74-1.28-.52-.53-1-2-1.65-2.84-.3l-.7-1.32c-1.19.2-2.36.79-3.64-.54-5.68 2-11.75-2.35-17.32 1.53l-.71-1.32c-.87 1.77-2.59 1.35-3.16-.23-.26.64-.06 1.19-.35 1.84-.56-2.63-1-.94-1.42-.14-1.62-2.12-3.42-1.44-5.43-1.31a2.78 2.78 0 0 0 0 1.8c-.45.37-.67-2.48-1.47-.85-.17-.33 0-.71.09-1.08-.51-.6-.89.75-1.47-.84a1.44 1.44 0 0 0 .09 1.41c-.59-.9-1.68-1.88-2.63-1.74-.33 1.85.58.91 1.08 2-2-1.56-3.93-2.21-5.89-3.37l-.66 1.89c.25 1.6-.49-.83.22-1.46-1-1.71-1.74-1.22-3-2.38-.12 1.54-1.27 1-.48 2.22-.5.59-.64-2-1.55.24-.82-1.39.32-1.16.52-1.51-1.22-1.76-2.2.05-3.44-1.95-.12.49.22.92.41 1.36-.28.45-.68-.71-.88.85.16-2-.6-.73-1.27-2.3-2.56 2.9-6-4.27-8.2-.11-.7-3.15-2.35-2.45-3.37-3 .17 2.26 1.39.49 2 1.82-.21.71-.49.39-.7 1.18 1 .88 2 2.88 2.93 3.46-.3-3.68 2.34-.2 2.85.25-1.71 1.91-4.74.89-6.61-2.15-.12.62.34 1.14.59 1.69-1-.37-3-.24-3.24-3.4-.64-.64-.31 1.42-.65 1.89-1.93-2.12-3.07-2-5.22-4.51-2.4.22-4.81.33-7.5-3.06-1.37.62-3.74-.88-4.82-3.14-3 1.69-8.8-6.9-12.45-1.49C94.22 132.8 91 135 91 131c-.81.41-2-3.66-2.61-1q-5.44-5.57-10-.09a6.55 6.55 0 0 1-.91-3.42c-.56-.37-1 .26-1.45 1.68-.61-1.59-1-.77-1.49-.81-.36-1.92-.78-1.61-1.24-3.37.24-1 .68.52.94-.16-2.26-2.3-5.68-2-8 1.73-.49-2.56-1.44-3.07-2.43-2.44-2.35-5.1-5.13-7.71-7.81-9.38l-.76 2.29c.1-2.31-1.53-1.6-2.31-2.81a3.19 3.19 0 0 0 .12 1.41c-2.35-.81-4.52-1.17-6.58-4.21-2.45-.55-5.75-1.42-8-5.38-1.6.5-4.93-3.42-6.36-4.94-2.43-2.57-4.57-4.56-6.53-8.14.61-.08.51-1.3.75-2.29-.53-1-.87-.13-1.4-1.18.73-.77 1.17.53 1.51-1 1 2.37 2.05-1.21 2.53 1.34.43.66.61-1.49.93-2a7 7 0 0 0 3.1.51 34.68 34.68 0 0 1-3-4.47c3.86.58 9.06.74 13.77 5 .46.38.84-.15 1.2-.92a7.65 7.65 0 0 1 0 1.79c.48 0 1 .46 1.51.8.45-3.29 2.68 1.77 3.72 4 .36-1.26-.4-2.32-.94-3.41.47.38 1.07-.68.94-2-.9-1.46-1-.1-1.64-2.22.28-1.11.95 2.18 1.14.16.64.6.31 1.38.82 2 .22.12.44.24.63-.12-.1-1.18-.87-2.24-.95-3.41-.17-.2-.31 0-.5-.27.53 2.12-1 .59-1.58.27-.25.64 0 1.21-.31 1.85-1.48-1-2-4.56-3.35-5.14 0 1.32 1.27 2.4 1.77 3.62-.57.12-1.83-.51-1.64-2.21-1.43 1.38-3.24-1.49-4.93-3.07.85-1.21 2.06 1.47 3.09 2.32-.83-3.34-2.83-4.2-3.72-2.2-1.39-1.75-2.77-3.26-3.86-1.81-4.21-4.4-7.85-2.59-12-6.09.69-1.81 1.66-.67 2.27-3.28 1 .6 1.86.4 2.59-1.55.35.42.21.92.45 1.36.47-2.46 1.37-.3 2-1.43a2.88 2.88 0 0 0-.71-2.38c.72-1.54 1.73.07 2.54-.46.57-.94-.46-1.59-.07-2.49 1.15-1.2 2 1.41 3.55 1.86.26-2-1.51-3.29-2.16-4.26.26-.09.49-.52.7-1.2.18.32 0 .71-.07 1.08.72.82 1-.73 1.4 1.19.25-.65 0-1.21.31-1.85 1.18 1.09 2.21.61 3.24.14a3.55 3.55 0 0 1 .26 2.81c.4.88.75 1.19 1.08 1.25a33.65 33.65 0 0 0 .25-4.34c-1.32-.29-3.47-2.84-4.07-5.73-2.05-.59-4.12-1.42-6 0 .26-2.89-1.13-1.79-1.92-1.45-.1 1.52.83-.19 1.22.85-.71 1.66-1.85-1.31-2.75-1.66-.52 1 .52 1.69-.31 1.85-.39-2.39-2.6-2.21-3.7-1.48-1.14-2.11-2.16-1-3.57-1.86-.33-2.39 1.11-.65 1.52-1-1.22-1.29-4.17-3.67-5.95-1.06-1.59-2.79-6 .61-6.89-5.55-1.12 1-1.84-2.12-2.72-.94.09 1.22.72.76.74 2.38a18.29 18.29 0 0 1-4-4.16A13.86 13.86 0 0 1 0 32.47c.55-1.16 1.61-2.4 1.14-4.15 1.28-1.79 3.54-1.53 3.55-6.05.82 1.89 1.95 1 2.3 3.17-.19.4-.47-.26-.72-.58-.2 1.39.15.91.66 1.67.29-1.42.69-1.83 1.15-1.65a2.3 2.3 0 0 0-.41-2.43c.4-.3.82 0 .91.9.8-2.66 3.28-.64 5 .53 1.53-3.43 3.79.93 5.87 3.24l.25-.77c-1.07-3.69-2.89-3.67-4-6.08.23-1.05.64-.24.83-1.59 3.11 3.63 4.69 2.05 7.6 4.37.07-.37-.07-.71.06-1.09a6.82 6.82 0 0 1-3.29-3.71c.33-1.13.88.09 1.22-.93-.07 1.52.39 1.82.9.91a9 9 0 0 0 .27 2.83c.87-.94 3.09.15 2.9 3.05.48 1.08 0-2.23.7-1.19 0-.74-.7-.66-.52-2.07.63-.31 1.43 2.35 1.29 3.36.48.45.2-1.9.57-2.61.95.91.49 2.06 1.1 3 .48.75.46-1.19.19-1.48.62-.75.64 1.52.83 2a3.76 3.76 0 0 0 .77-2.28c-.5-1.27-.83-.79-1.29-1.57.85-1.37 1.49 1.14 1.55 2.6 1.16.22 2.2.24 3.2 3 .75-1.09-.25-1.86.06-2.88-.7-.49-1.36-.67-2.05-1.07a5 5 0 0 0-.39-4.23c.35-.79.81 0 .9.91-.06-1.71.76-.21.76-2.28 1 1.8 1.86 1.64 3.08 1.61.15-1.06-1-1.72-1.15-.16-.19-.21-.13-.45-.07-.7l-.38-.65c.53-1.36 1.29-.15 2 .36.19-1.46-.28-2.82-.07-4.28.46 1.45.43.77 1.16 1.94.52-.93.27-1.72.57-2.61.46.53.42 1.13.64 1.68.39-.78-.07-1.42.45-2.23 1 .7 2 .35 2.95.2.3-1.63-.45-.84-1-2.33.4-1 1.07 1.07 1.41-.6 0 .58.45 1.11.32 1.74 2.24-1.64 4.91 1.46 7.18.18.2.44-.08 1-.2 1.46.46.86.9 1.63 1.28 1.58.18-5.67 3.27 1.12 4.55-.08-.81-5-2.43-3.39-3.89-5.41.6-1.21 1.62 1.21 1.67-1.36l1.15 1.94a5.1 5.1 0 0 0 .32-1.84c-.42.11-1-1.43-1.34-.48.11-1.6-.48-.85-.7-2.4.51-2.86 1.81 3.36 2.31.33.8 1.93 1.71 3.79 2.53 5.69a3 3 0 0 0-.25-2.83c.38-1.86 1-.62 1.54-1a3.92 3.92 0 0 0 .89 2.72c-.29.46-.71-.7-.9.87.61.77 1.14.68 1.6-.28l1.72 2.93c.09-2.11-.44-1.64.65-1.9.68-1.07-.51-1.82.07-2.88.5 3.41 1.31 2.25 2.54 4.94.92-.69 1.88-.83 2.77-1.9 1 3.27 2 3.8 3.22 5.54.66-1.06-.68-1.8-.56-2.77 1.5.12 3.32 4.75 4.17 7.17-1.45 1-2.24-3.65-3.29-4.45a2.62 2.62 0 0 0 0 1.79c-.37.7-1.17-1.43-.82-2-1.15 2.95-4.38-5.2-5.94-1.13 1.42 4 3.9 4 5.48 3.36 1.37 4.78 3.62 4.15 5.72 4.41a25.88 25.88 0 0 1-1.49-6.19c.56 1.43.92.69 1.46 1.9 1.16-4 2.13 1.85 3.27-1.62a10 10 0 0 0 2.6 2.06c-.39.67.18 1.17 0 1.8.47.46.86 0 1.39 1.2.64-1.42-.32-2.14-.81-2 0-1.63 2 .2 2.09 1.8.63-.22 1.39 1.12 1.86-1 .9-.3 2.1 3.25 2.92 2 .45-2.1-.66-4-1.28-5.87 1.18.12 1.88 3 3.43 2.3.47-1.44.14-1.72.85-1.57.62 1.25-1 .6-.34 1.84-.47.19-.94.47-1.47-.11-.11 1.84 0 1.65-.85 1.57-.12.5.23.91.43 1.35.48.58.71-2 1.17-1.62 0 .6.44 1.12.3 1.74.58.5 1.06-.3 1.6-.26.17-1 0-1.32-.43-1.36-.34-.32-.1.61-.4 1.14a6.68 6.68 0 0 1-.09-3.21c2.59 5.37 4.72 5 7.06 7.43a2 2 0 0 0 .22-1.47c.25 1.11 2 2.94 3.14 3.06 0-1.83-1.78-2.58-1.73-3.64-.35 1.6-.81.8-.19-.33 1.92 1.51 3.61 2.2 5 2 .38-2.45-1.79-1.39-1.92-4 .63 0 .79-.74 1.2.88 2-2.08 6.14 3.07 8.37 3.66.42-1-1.37-1.68-.53-2.78a3.64 3.64 0 0 0 2 2.9c-.45.42-.89 1.06-1.41.59-.08.36 0 .7-.08 1.08 1.05 1.17 1.83-1.5 3 .95.26-.64 0-1.2.35-1.84.87 1.57 1.53.35 2.34 1.06a2.63 2.63 0 0 0 0-1.79c.34-.6.83 1 1.1-.54a1.43 1.43 0 0 1 .1 1.42c3-.61 5-.13 8 .53a2.41 2.41 0 0 0-.48-2.07c.47-.23 1 .55 1.47.13.83.82-.21 1.93.52 2.77.65-1.53 1.44-1 2.29.36.4-.78 0-1.42.49-2.22.34.78 0 1.67.34 2.45.77-2.12.75.11 2 .4.4-.77 0-1.42.49-2.21a2.76 2.76 0 0 1 0 1.79c1.07.93 3.13-1.64 3-4 1.59 1.19-1.09 2.23 0 4.3.55-.1.33-1 1-1.94.83 1.29 1.64-.13 2.11 2.53.71-.05 1.52.12 1.64-2 .31.55.62 1.09.92 1.64-.47 2-.29-1.48-.77.48.58 2.59 2.84.49 4.35 2.18-.31-1.39-.24-2.6-1-3.05 1-2.07 1.45 2.58 2.61 2.81.6-2.33 1.48-.42 2.29.38.77-2.08 1.75-1.24 2.69-.77.14-1.56-.87-.46-1.23-1.6.26-1.11-.57-2.06-.37-3.16 1 2 2.29 2.26 3.2 4.51.22-.69.65-.13 1.24-.9.23-2.1-2-.2-.83-2.73-.57-1.36-.93.53-1.51-.84.38-1.72 1.89 1.05 1.69-1.32.6 1.21 1.14.61 2.07 1.82-.2-2.88.92-.13 1.65-2 1.1 2 2 1.28 3.06 2.39.1 1.45-.66 2.59-1.19 1.61.22 2.44 1.56.9 2.15.75a3.62 3.62 0 0 0-.64-2.4c.06-1.17.52-1.25.47-2.92.22 3.17 1 .76 2 2.91-.26 1.91-.77-.18-1.05 1.23.54.11 1.16 1.34 1.6-.24.12-.7-.29-.27-.55-1 .2-.71.67-.42.41-1.13.54-1.14.34 2.28.83.24a6.13 6.13 0 0 0 .22 3.53c.77-.08 0-1.2.51-2.22a4 4 0 0 1 .31 2.46c.28.08.51-.53.82.23.76-1.66-.65-3-.12-4.62a9.15 9.15 0 0 1 .5 2.78c.63 1.52 1-1.68 1.64.47.56-.91.32-1.71.65-2.58.79 1.36 1.43.38 2.11.05.52 2.41 1.68 1.6 2.51 1.41.41-.78-.9-1.29-.13-2.13.83 2.13 1.58.94 2.66 1 .7.73-.22 1.7.3 2.46 1 .29.07-2.12.8-3 .43.05.62.4.72 1.32 1.38-4.1 3.34 1.75 4.82-.69.67 2.32 1 1.9 2.13 3.26.29 0 .42-1.43 1.06-1.22.09-1.8-1-.85-1.4-1.93.94-1.22 1.75.17 2.5 1.41.78-.69.37-1.49.81-3 .66.43 1-.63 1.36 1.23l.57-1.5c-.2 1.94 1.55 2.55 2.1.07.63 2.53 1 1.39 1.83.8.72 1.2-.05.43-.24 1.46.42.89.75 0 1.14.2.55-1.76.12-1.72-.15-2.83.69-.08 1.37-.57 1.95-2.77-.18-.44-.35-.5-.5-.28 0-1.35 1.57-.82 2.21-1-1.64 1.2-1.24 3.48-2.84 4.31 1.65 2.87 1.63-2.29 2.82-1.82 0 1.54-1.11 3.24-.88 4.75.37-1.4 1.49-1.25 1.77-3.09.52 1.47.6 3 1.06 4.49-.3-2.52.52-2.44 1.09-3.72.28-1-.76-1.79-.15-2.83a6.14 6.14 0 0 1 .48 2.78c.42 0 1-1.34.68.63.48-.08.91-1.12 1.35-2 0-1.1-1.48 0-1.26-2.32.92 1.17 4.93 3.87 4-.2.47-.18 1 1.46 1.46.16.83 3.3 2.43.48 3.76 3.75.2-2.37 1.25-.95.82-3 .53-.6.5 1.8 1.25 2.33 1.23-.31 2.42-1.43 3.76.57.06-2 1.15-1.51 1.29-.18.39-1.93.94-.76 1.36-1.95-.1 1.16-.34 1.21-.5 2.91.63.15 1.29-1.33 1.51-2.34.83-.43.51 2 1.6-.21.09.58-.14 1.2.25 1.74-.72-.39-1.39.22-2 1.34a18.56 18.56 0 0 1 3.54-.46 6.7 6.7 0 0 1 .11-1.08c-.57-.61-1.53.95-1.68-1.21.81-1.19 1.65 1.58 2.73-.71.24.5.48 1 .68.62a2.7 2.7 0 0 1-.08 1.79c.75 1.16 1.39-.23 2.14.79.56-.78.13-1.44.55-2.2.66.83-.28 1.8.56 1.7.58-1-.43-1.71.41-1.83.47.53 0 1.19.24 1.74 2.35-4.48 5.53-.51 7.5-2.74.25-.74-.51-1.35-.41-2.08.88-.79 1.94 2.33 2.73-.7a2.71 2.71 0 0 1-.09 1.79c.38 1.25.67.34 1 1.29.39-.64 0-1.19-.24-1.75.45-1 1 .07 1.44-.53.19.45-.11 1-.26 1.45.37 1.18.65-.07 1 .58 0-.59-.26-1.15.09-1.78.23.44.47.88.7 1.33.43-.76 0-1.42.56-2.2a10.56 10.56 0 0 0 4.73.48l-.44 1.12c.43-.1.93 1.47 1.32.55.4-.65 0-1.2-.23-1.75.93-.94 2.68.74 3.14 1.39.21-1.5.59-1.88 1.27-.87-.79 1.46-.05 1.42.4 2.08-1.5-.55-2.07 1.55-3.7.82-.19-.65.15-.3.29-.75-.38-1.54-.61.95-1-.59a11.65 11.65 0 0 1-1.18 3c1.85-1.68 4.5 1.08 5.79-1.43.12.35 0 .72.21 1.05.64.66-.19-1.34.41-1.83 1.08 2.8 2 1 2.94.35.33 1.93 1 1.73 1.67 1.23-.27-1.39-.89-2.74-.48-4.21-.49-.39-1.29.24-1.35-1.26.64.19.65-.14.93-1.53.31 1.58.73 1.18.9 2.38.56.5 1.05-.9 1.64.51.58-2.64 2.07-1.36 3.24-.38 0-2.15.56-2 1.45-.52a2.62 2.62 0 0 0-.22-1.76c1.05-1.11 2.21 1.19 3.27.33.31.67-.38 1.47.07 2.12.35.95.58-1.88 1-.11a2.59 2.59 0 0 0 .1-1.79c.52-.37 0 2 .85 1a2.57 2.57 0 0 0 .26-2.15c.84 1 2.28-1.09 2.64 1.11.44-.76 0-1.42.59-2.19.05 2.19.85.26.82.26 1.15.19 1.58 3 2.79.74.26 2.06 1.59.94 2.32 1.16 0-.6-.24-1.15.11-1.79.56 2.27 1.3 0 2.19 2.24.28 1.46-.8 2-1.11 1.19-.29.33.78 1.56 1 1.31.34 1.66-.72.48-.95.81-.16.61.3 1.16.53 1.72.27.17.88-2.3 1.62-.18a3.11 3.11 0 0 0 .43-2.53c.56-1.32 1.2.51 1.76-1.26.16.93 0 2.16.7 2.06a10.69 10.69 0 0 0-2.92-5.72c.53-.29 1.05-1.13 1.59-1.59.25.67.35 2.11.84 1 .17.57 0 1.18.21 1.75.74.89.4-.87 1.09-1.89-.08 3 2.81 3.13 3.1 0 0 1.76.7-.08 1.19 1.63-.51 1.33-1.1-.43-1.61.9 0 1.32 1.4-.07 2-.22a4.45 4.45 0 0 0 .7 2.06c.41.78.37-1.14 0-1.42.56-.6.64 1.79.22 2.46-.39-.48-.75.46-1.16-.94-.14.72-.14 1.44-.28 2.16.79 1 1.5-1.29 2.28-.24.15-1.39-1.2-3.87-.1-4.25-.16 1.94.25 1 .86 1.68.06-2.1-.57-.88.6-2.19.09 1.37.16 1.83.87 2.39.23-2.71 1.24.84 1.93-1.61-2-.21-3.55-2.3-5.73-.47.77-2.47-1.52-1-1.24-3.77.26-.71.54-.38.79-1.15.34 2.3 1.69.48 1.94-.92-.43 2.08.8 1.79.26 3.88.43-.16.89 1 1.31-.13s-1.32.24-.21-1.76c-.36-1.55-.63.95-1-.6.3-.63.12-1.2.45-1.82 1 2.27 1.24.41 1.45-1.22.07 3 2.12.83 3.15 1.44.36 1.31 0 .94-.46 1.82 1.13 2.3 2.9-.07 3.48 2.12.66-.89-.11-1.64.12-2.49-.88 0-1.76-.42-2.61.27a4.63 4.63 0 0 1-.07-2.83c.24.71.45.35.66-.07a3.09 3.09 0 0 1 0 1.42c.88-2.22 3.36-.27 4 1.72-.44-3.56 1.17-1.83 1.56-4.42.29.6.56.61.83.28.33 1.89-.74.42-1 1.51-.26 1.5.7 2.4 1.56 4.45.73-2-.72-2-.72-3.47.81-1.43.65.12 1.49.92a9.1 9.1 0 0 0-.12 2.49c.4.5.75-1.17 1.16.25-.69 1.49-1.45-1.42-2.11 1.27-.84-1.41-1.69-2.58-2.5-2.24-.28.9.75.52 1 .61.33 1.25-.83 1.36-.65.07-.15 7 4.68.74 7.25 2.82a2 2 0 0 0-.3 1.45c-.36 1.07-.78-1-1.14.47-.08 1 1.22 2.2 1.65.54-.33 1.7 1.08 3.83 1.66 2 .19-.4-1-1.45-1.31-.59.2-2.11-.37-2-.56-3.84.71-.88.49-1.37 1.28-2.25-1.18-.7-1.85.79-3.31-1.8.68-1.74-.07-1.68.94-2.93 0 1.18-.62 2.42.38 3.51 1.1-.07 2.18-.9 3.28-.33a2.54 2.54 0 0 0-.3 2.16 2.5 2.5 0 0 1-1.46.5 3.39 3.39 0 0 0 1 2 1.41 1.41 0 0 0 0-1.42c.93-1 .25 2 1.33 1.29.05-1.07-.36-2.1-.22-3.18 1.18 2.58 3.38-.24 4.63 2.41.23-.85-.19-1.65.46-2.53.61.77 1.2-.24 1.83 1.6a4.93 4.93 0 0 0-.64 2.19c.78.77 1.54.05 2.31 1.19.37-1.44-.56-4-1.33-2 .37-1.1-.26-2.1.13-3.2.68 2.45 1.43 1.4 2.82 2.92-.37 1.49-.77-.6-1.14.47 0 1.74 1 .2 1.49 1.63.31-.62.13-1.19.47-1.82.38 3.81 1.92-.25 2.8 1.52.47-2.66-1.26-1.79-1.34-3.43.16-.34.33.14.5.32.73-.77-.42-1.38.31-2.15.59 1 1.47-.21 1.16 1.67.57 1.52 1.1-.8 1.65-.15.13-.94-.17-2.27-.67-1.36.13-2.46 2.12 1.83 2.3-1.62.33.68.66 1.36 1 2a5 5 0 0 0-.49 1.82c.64.8.65-.55 1-1.51 1 2.75 2 0 3.78-1.4 1 1.93 3.13-1.12 4.62.33 0 1.68-.7.46-1.15 1.16.23 1.86 1.86 1.32 2.64 1.2.29-1.79-1 .07-.83-1.71a4.82 4.82 0 0 0 1-2.2c.4.69 1.11 2.79 1.65 4.12.75.47.59-1.9 1.16-2.58.4-.26 1.63 1.79 1.49-.48 1.26 1.84 2.53 1.23 3.8.77.77-1.12-.59-2.07.18-3.19 1 1-.3 2.14.48 3.15s.83-1.86 1.35-2.94c.43.69.88-.37 1.32-.1a4.14 4.14 0 0 1 .68-2.88c0 .53.19 1.51.49 1 .38 1-.51.16-.67 1.46.43 1.24.88 0 1.33-.1.34.91-.64 1.33-.84 1.12a16.89 16.89 0 0 0 .15 2.47c.63 0 .67-1.26 1 .63.74-1.65-.16-1.24-.15-2.46.7-1 .6.79.82 1.71.76.52 1.55-.41 2.32-.18.06-1.07-.46-2.09-.47-3.15.74-.58 1.48-3.43 2.35-2.28.69-2.2.86-3.37 2.38-3.7-.45.74-1 .84-1 2.19.49 1 1 .44 1.5.25.32.69-.26 1.43.31 2.1-.64-.12-1.9 1.89-2 .14a3.81 3.81 0 0 0 .14 2.47c.57.15.43-2 1.16.27.75-.76-.4-1.38.35-2.14-.16 2.15.75 2 1.49 1 .39 1.32-.24 1.69-.68 1.46.27.66.55.28.82 1 .2-.84 1.2-1.73.86-2.54.3-.21 1.39 1.88 1.17-.43.57-.69.79 3.1 1.64 2 .18-.6-.26-1.16-.47-1.74.84-.27 2.4-2.33 2.67-.18.24.29 1.44-.4.69-1.45 1.47.21 3.33 2.36 3.72 6.5.39.1.79-.31 1.17.28.69-1.22-.54-2.32.4-3.56-.75-1.36-.78-.41-1.33.08a3.26 3.26 0 0 1-.27-3.52c.15.34-.09.71-.19 1.08.49.63 1 1.45 1.5.26.41-1-.51-.09-.64-1.38.48-1.5.88.93 1.36-.78.21 3.42 2.12.91 3.37-.92.51 1.25.89 3.66-.25 3.91.32-1.84-.39-1.18-1-.65-.19.63.27.64.5.33-.32 1.61-2 .53-2.87 1.22 1.32 1.17 3 1.22 4.78 1.16s3.63-.24 5.23.42c.19-.49-.14-.94-.29-1.4.46-.54.92-.84 1.32.64.35-2.28.69-.34 1.39-1.49.53-.84-1.05-1.59-.09-2.46.53 2.29.92.92 2.18.24.44 1.77 1 2.93 2 .61.51 1.61 1.11.44 1.62 2 2-4.95 5.07-1.38 8.28-3.87-.15 1.56.57 2.85 1 .67.66.81.43 1.64.41 2.47.22.14.44.3.68 0 0-1.06.23-2.12-.37-3.17 1-1.41.11 3 1.34.67.15 2.51.49 1.61 1.46 1.72a2.78 2.78 0 0 0-.4-2.46c1.53 1.87 4.13.16 5.08 4.43.76.77.83-.4 1.4-.74.53-1.08-.33-2.12.33-3.19a3.61 3.61 0 0 1 .2 2.82c.87-.4.58.75 1.3 1.39.62-1.89-.35-4.28-1.15-4.22.38-.54.24-1.06 0-.71 1.29-2 3.08-4.27 4.69-.44.69-1-.69-1.87.16-2.83.49 2 2.34-.3 3.47-.07.3.58.08 1.18.41 1.76.1-.59-.15-1.17.28-1.77.63.1.18.47.61 1.4.18-.47-.17-.94.09-1.42.84-1.48 1.53-.23 1.3 1.4.21-.47.39-.55.55-.36.21-.47-.11-1-.26-1.41 1.64-.08 4.38-2.69 5.26 0 1.73-1.93 1.13.64 2.15-.72.7 2.78 1.28 2.32 2.36 3.87-.48.93-.86.54-1.31 1.06.44 1.25 1.1-.62 1.56.36.21-.47-.1-.95-.25-1.42 1.13-.14 2.36-1.58 3.5-1.74.21-.47-.1-.94-.25-1.42.55-.15 1.12-.65 1.57.37.25 3.87 4.25-1.45 5.79 1.1a43.68 43.68 0 0 0-6.37 1.72c.64.91 1.41.15 2.13 0 .13 1.67-.95.38-1.32 1l.89 2.12c.38-.58.25-1.17.67-1.76 1.4.93 1 4.2 2.94 2.84.26-1.23-1-1.5-1.38-2.48.13-.83.63-1.64.39-2.47.31.53.79 4.87 2.39 3.22a2.2 2.2 0 0 0-.17-2.13c.86-1.24 1.13 3.06 2.32 2.17.83-.93-.33-1.9.62-2.82.16.24 0 .47-.07.71-.13 1 .94.19.53 2.13.34-.29 1.59-.73 1.15 1.08.44-.27.78.61 1.28-.32.17-1.29-.95-2.61-.52-3.9a11.13 11.13 0 0 1 1.45 1.8c.57-.69.2-1.41.92-2.1 1 .52 2.16 0 3.27.1.46-.82-.66-.46-.74-1.8 1.53-1 1.31 3.85 3 1.18.33.34.49 2.26.95 1.45.32 1-.58.1-.88 1.38l.43 1.08c1.24-1.3 2.18.14 3.44-1.28.25-1.8-1.23-2.08-2-.43-.39-.89-.82-1.52-1.31-1.46.58.14 2.31-2.4 2.93.1.87-1 0-2.11.91-3.14A2.59 2.59 0 0 0 472 8.25a12.15 12.15 0 0 0 2.69.49c.59-1.25-.53-.45-.58-1.44.8.07.58-1.16 1.38-2 .88 1.11 2 .22 2.84 1.59 1.67-2.09 1.31.55 3 3-.78-.26-1.48-1.15-2.38-.5-.33-.49-.09-.95.17-1.41-.43-.55-.93-.58-1.5-.08s.47 1 .66.74c-.4 1.11-2.65 4.2-3.26 1.94a2.45 2.45 0 0 1-4 .84c-.55 1-.44 1.87-.95.32-2.15 2.23-4.08 2.68-5.85 1.54-.32 2.42-2 .45-1.74 2.76-.21-.74-.84-.68-1.52-1.11.37-.67.63-.3 1-1-.33-.35-.69-.38-1-.74a2.36 2.36 0 0 0 0 1.77c-.59 1.11-1 .27-1.56 1.38-.3-.48-.05-.94-.22-1.42-.52 1-1 1.87-1.29.33-.34.52-.74 1.5-1 1-.56.7.78 1.43-.2 2.12-.43-2.75-3.63-1.6-4.47.27-.72.81-.11-1.1-.58-1.43-.16-.22-.36 0-.5-.37-.74.82-.36 1.65-1.1 2.47-.94-2.26-3.38-.33-5.1.32-.3-1.34-.74-.93-1.09-1.76 1-1.55.59 1.28 1.55.35-.33-1.12-.23-.8.37-2.47-.94-2.3-2.05-1.08-2.51.7.37 1.29 1.06-1.62 1.41 0-.79 0-1.32 2.07-.78 3.18-1.11 0-2.29 1-3.39 1 .16 1.95.07 1.15-.85 2.12.54.46 1.16-.08 1.84-1.41.26.71-.56 1.41-.16 2.12-.6-.51-1.32.54-1.93.36-.35-.94.37-1.89.89-2.83-.94-.49-2 .6-2.86-1-.06-.94.36-1.89.2-2.83-1-.52-.15 1.84-1 2.49-.23.67.26.3.44 1.05-1.19 2.43-3.35.87-4.72 3.57-1.23-2.26-2.71-.72-4.07-.65-.58 1.82.84 1.55.81 3.51-1.13 1.43-1.13-2.34-1.6 1.09a7 7 0 0 1 .22-3.53c-1.14-.84-2.36-.44-3.6.43-.2-2.72-1.44-1.67-2.31-1.37-.19.48.12.95.27 1.41s.6-.6.91-1.08a1.28 1.28 0 0 1 .11 1.06l.3.7c-.67.91-1.18-1.16-1.93 1.1.35.94.79.05 1.17.33.1 1.9-1 .92-1.43 1.44.93 3-1.34.57-2.3 1.82.13-1.11 0-3.13-.67-3.15.36 1.8-.54 1.81-.71 3.9-.14-.46-.31-.53-.49-.33.42-2-.72-1.7-.83-3.51-.48.29-2 2.36-2.88.44-.66 1-.14 1.9-.13 2.84-1 .93-1.88 1.08-2.45 2.2l-.61-1.39.73-1.44c.53 2 1.25-.36 1.87-.42-.72-1.5-1.6.76-2.32-.62-.18 4.31-1.92 1.88-3.35 4 .52-.49 1 .51 1.52-.41 0 1.77-1.38 1.15-1.89 1.14a24 24 0 0 0-.22-2.82c-.88-.5-.53 1.86-.93 2.52-.19-.73-.43-.38-.67 0 .07-2.21-.72-2.18-1.66.07.6-2.36-.22-.77-.9-2.79-1 2 1.12 1.67-.13 3.54-.18-2.6-.84-1.87-1.21-3.48-.88 1.7.89 1.64.57 2.8-.81.06-1 0-1.44-1.7-.81 1.54.52.81.26 2.11-1.55 2.56-1.88-.38-3.28-1.27-.42.85-.26 1.66-.91 2.52-.67-1.61-1.44 0-2.12-.94a26.57 26.57 0 0 0-.09 2.82c.2.67.43.26.64.68.58-.74 0-1.42.07-2.13 1 .31 1.24 1.56 2.45.94-.74.6-1.5 1.89-2.19 1.17-.6 1 .9.07.29 1.4.79-.72 1.55-.42 2.34-.83.12.47-.25 1 0 1.41.6.72.24-1.35.89-1.8.25.61.53.63.82.32-.11 4.41 1.65-1.07 2.42 1.66.64-1-.06-2.15.74-2.15.42 1.4-.27 2.84.17 4.24-.48 1.06-.87-.21-1.35.75-.14-.46.2-.95.39-1.43-.51-1.2-1.1-.22-1.66.08-.15 1.29.5.59.59 2.09.65.22 1.33-.39 1.95.62.64-1-.05-2.15.75-2.15.84 5.14 4.59 1.27 6.71 1.49.16-.94-.56-1.86-.2-2.82-2 .59-4.06 1.93-6 1.66-.25-1.26.8-1.31 1 0 .56-1.24 1.22-.92.6-2.5a4.91 4.91 0 0 0 1.63.63c.18-.94-.39-1.86.45-2.84.43 2 .63 1.35 1.45 1 .67-.84-.07-1.64.61-2.49 1.2-.65 2.62.67 3.24 2 0-.6.42-1.2.25-1.78-.42-1-.14 1.8-.67 0 1.07-1.41 2-.21 3.08-1.52l1 2.44a11.58 11.58 0 0 1 1.15-2.86c.55 2.38-.56 2.34-.85 3.56.55 1.24 1.35-2.47 1.86-.41.87-1.44-.52-2.82.55-4.26.15.35-.11.72-.22 1.07 1.23 1.21 2.58.06 3.9-.44.59 1.51-.59 3.08-1.17 2.85.58.65 1 4 1.71 2.43.38-1.34-.67-.41-.4-1.76.42-1.59.62.87 1-.72.3 1.36-.17 1.84.7 2.45a2.06 2.06 0 0 0 .13-2.12c1-1.45.64 2.83 1.59 1.38.33-1.07-.78-2.11 0-3.18.59.81.35 1.64.7 2.45.21.16.42.32.67 0 .11-1.15-.83-1.14-.5-2.81.84.14.72-1 1.67-2.51 1.68-1.31 3.24.5 4.37.66-.78-2.55 2.85-1.47 4.1-2.51.07-1.88-1.61.28-2.1-1.75 1.52-1.74 2.46 1.93 3.62-.39.14.48-.24 1-.44 1.42.33 1.7.9.12 1.26 1.41 1.56-3.48 3-.18 4-2.81 1.45 1.63 2.56-.29 3.62 2.13-.63.11-.24.48-.8 1.41 1.7 2.3 2.59-1.66 3-4.58.31 1.42-.18 2.83 0 4.24.79-.4 1.52-.18 2.35-1 .35-.93-.83-.84-1.06-1.79-.26.82 2.77-1.21 3.21-.64.44-.32.62-2.23.13-1.41.19-1.7.71 0 1.05 0 .14.47-.26.94-.48 1.4 1.42.17 4.07-4 5.83-2 .35-.58.71-1.16 1.07-1.73.28.7.77-.49 1 .74 1.95-3.68 3.1.11 5-3.35a1.8 1.8 0 0 0 2.35.73 8.61 8.61 0 0 0 2.75-2.27c-.87-1.17-.83-1.95-1.5-2.91 1.82.21 3.37 2.77 4.56.61-.43 3 .69 4.46-.25 7.77 1-.33 2-1.21 3-1.6-.51 3.12-3.48.94-3.9 4.73.25.84.85-1 1.26-1.34-.16 2.21 1.46.23 1.89 2.22a4.65 4.65 0 0 1 1.2-3.46c-.31 1.69.21 2.1.85 3.25.76-1.31 2.07-3 1.81-.93.8-.88.62-2.11 1.4-2 .57-1.3.07-.92-.3-1.8.84-.23 1.7-.51 2.37.54.81-1.12-.34-2.39.51-3.51.25.57.08 3.42 1.05 1.86 0 .83.33 1.68-.56 2.44.93.88.81.55.93 2.55.19 1.23 1-1.85 1.22-.61.64 1.41-.69 1.35-1.06 2 .44.34 1.09-.64 1.48.12.53-.89-.49-1.94.44-2.79 0 1.54 1.24.79 1-.26.7 2.85 2.83 1.75 4.94-.56-.09.81.23 1.68.15 2.5-.93.62-.58.71-1.5 2-.39-.63.11-1.18.49-1.73-1.49-.7-3.41 1.24-5.12 2 1.11 1.38 2.89-1.29 4 .05a7 7 0 0 0-2.41 1.53c.61.9 1.67-.86 2 1.63.55-.9 0-1.89.85-2.75.2.69.58.37.77 1.13.59-.52.29-1.15.11-1.76.5-.65.66.59 1.25-.58-.17 2 1.28.94 1 2.94 1.25-1 .39-2.32 1.4-3.38.58 1.18 2.62.11 3-1.05 1 1.44 1.38-.75 2.35.31.7-1.21-.53-.49-.52-1.49 1.41-1.34 2.22.33 3.55-.61a7.34 7.34 0 0 1 0 3.2c.74-.24 1.9.63 1.58 2.4 1.05-.55-.21-1.46.84-2 .71-.32 1 1.07 1.91-.06.56 1-.14 1.77.63 1.9.92-1-.43-2.46-.05-3.59-.26-1.11-1.44 2.11-1.5.11.54-1.58 2.12-1.1 2.73.09.9-.57.55-1.34 1.28-1.93a5.89 5.89 0 0 0 1.64 1.89c.62.4 1.3.51 1.66-.25.46-.28.26.66 0 1.08.72.41 1.39 1 2.61-.56.17 1.4.9.62 1.06 2-.64-1.33-2.44 2-2.86-.21-1 1.59-.33 2.45-2.1 3.19.63 2.57 1.61.14 2 0 .4 1.85-1.15 1.07-1.52 2.58-.22-1.23-.64-1.23-1.36-.23-.23-1.41-.94-.63-.63-1.93.87-.64 1.24.4 1.46-1.51-.35-.72-1.33 1.24-1.53.07-.67 1.28.11 1.89-1.17 2.32 1-2.3-.91-.09-1.6-.26-.22.38-.48 2.45.2 1.81-.55-.13-2.34 1.93-3.09.94-1.4 2.86-2.18.71-3.37 3.4-.85-.77-.44-2.27-1.5-2.36-.32.55.08 1.19.21 1.81-1.27 2.1-1.81.65-2.81 1.42-.1-.95.15-1.29.66-1.35-.18-1.79-1.34-.17-1-1.9-.13.31-.69 2.17-1 1.29-.64 1.27-.11.92.22 1.81-1.24 1.12-1.92-.69-3.39 1.72.34-3.72-1.7 1.5-2-1.67-.21 2.19-.93.78-1.35 2.34.62.32 1.21.85 2.21-.81.07 3 2.26.85 3.76-.61a5.08 5.08 0 0 0 .32 3.25c-.57-1.77-2.15-.71-3.63 0a2.7 2.7 0 0 1-2 .36c-.57-.23-1-1-1.12-2.57-1.21.24-2.28-.39-3.63.71-.13-1 .11-1.3.59-1.36-.25-.73-.49-1.47-.75-2.21-.32-.27-.74 0-1.21.6.37 1.17 1.12 0 1.36 1.91-.7.87-1.23.71-1.92 1.59-.17-.49-.34-1-.5-1.47a1.19 1.19 0 0 0-1 .26 2.66 2.66 0 0 0 .15 2.5c-1.44.5-.18-3.46-1.82-2.28a2.45 2.45 0 0 1 .45-1.74c-.27-.63-.58-1-1-.78.23 3.13-2.66 3.74-3.81 5 .91.94 3.84-1 3.33 1.66 1 .12 2.31-1 3.32-.43-.22 2-1.4.47-2 1.24.69 1 .83.25 1.1 2.23.93-3 1.1-.25 2-3.36.68 1.37.05 2.61-.46 3.86.58.7 1-1.51 1.42-2 .28.87.76.5 1 1.86.78-.63.46-1.37 1.08-2 .49 1.79.45.12 1.32-.23.64 1.16 1.64.36 2.28 1.67.9-.72.2-1.64.63-2.42-.8-.71-2.72.79-2.06-2 .53-.16.77 1.19 1.21 1.56a3.54 3.54 0 0 1 .62-1.36c.52 1.64.66 1.78 1.59.56.81 1.4-.6 2.53.2 3.94.14.24.36 0 .48.41.84-.84.41-1.84.54-2.78.81-1.61 1 0 1.74-1.2.29.5 0 1-.27 1.38.93 1 2.7-2.14 3.18 1.12 2.3-.88 3.52.89 5.74-1.26.24 1.84 1.17.64 1.74 1-.17 1.7-.52 2-.16 3.19a10.84 10.84 0 0 0-2.15 2.52c0-1.75.23-1.25-.11-2.87-.71-.6-1.79.5-2.2-1.42-.76 1.19.24 2.65.09 4-.65.82-1.77-.6-2.05 1.47-1.33.36-2.06-2.37-3.8.17.49 1.15 1.36.61 1.89 1.68-.55.24-1-.24-1.75 1.18.12-1.48-.05-1.51-.71-.09-.86-2.65-3 .94-4.16-.15-.84.61-.18 1.41-.05 2.13-.7 1.2-.93-.13-1.54.53a10.44 10.44 0 0 1 2-3.68 6.53 6.53 0 0 0 .16-1.76c-.4-.18-.89.13-1.33.2-.33.67.15 1.44-.74 2-.34-.63-.14-1.2-.22-1.8-.18-.32-.55.39-.71-.09-.71 1.44.23.86 0 2.14.36 1 1.29-1.1 1.53.54-.73.1-1.44.19-2.15.25s-1.41.15-2.11.2l-4.16.3a29.66 29.66 0 0 0-8.37 1.61c.08-2.92-1.86-1.54-2.49.54-.13-1.54.63-3 .47-4.56-.89-.8-1.19 2.05-2 .94-.23.46 0 .94.15 1.42-.9.37-1.53-1.31-2.49-.47.5 3.85-2.3 2-4 4.75-.59-.74.25-1.4.6-2.09-1.38.08-.83.49-2.19 1.31-.13-.6.59-1.15.38-1.75-.31-.26-.69.06-1.09.66a4.21 4.21 0 0 0-.42-2.13c-.61-1.14-.74 1.83-1.35 0a2.34 2.34 0 0 0 .1 2.12c-2.13 1-1.93 2-4.29.93a2.48 2.48 0 0 0 0 1.76c-1.33-2.1-3.09-.16-4.5-1.52a3.13 3.13 0 0 0-.14 1.42c-.61.06-1.11-1.09-1.58-2.5a1.63 1.63 0 0 0-.2 2.12c-1.91-.87-4.25 3-5.89-.79-.7.82 0 1.64-.71 2.47.27.69.71-.51.93.71-1.49-.59-3.24-2.69-5.33-1.06-.12-1.55 1.39-1.09.56-2.82-1 1.46-1.79 2.67-2.47 2.12-.31-2.25.7-.17 1.23-1.06-.47-1.57-1.15-.66-1.73-1.06a19.81 19.81 0 0 0 .06 3.53c-1.61-.53-2.61-3.14-4.61-1.73-.18.47.14.94-.11 1.42-.32.67-.57.32-.89 1.07-.5-1.35-.18-1.41-.83-2.11a4.91 4.91 0 0 1-.8 2.13c-.77-.74-1.61-.3-2.43-.32-.44.91.43 1.24.61.7-.77 2.17-2-.36-2.29-2.44-.9 1-.21 1.88.15 2.82-1.14 0-2.09-2.88-3.31-1.69-.41.55.38 2.12.61.69-.29 1.53-.95 2.1-1.75 2.16.24.11.94.46.24 1.41.3.39.7-.83.92.68-.61 1.32-1.07 0-1.65.75.26-.95-.07-2.72-.71-1.75-.13-.67.29-.31.55-1.07a4.5 4.5 0 0 1-1.79-2.78c-.83 1 .25 1.88-.48 2.84-.41-1.13-1.24-1.12-1.14-2.8-1.41.47-3 1.49-3.94.83a3.31 3.31 0 0 0-.36-2.46c-.63 2.06.24 3.08-1.15 3.58.36 1.41.84.4 1.26.66-.16 1.82-1.49-.25-2.12.43 0-.59.26-1.19-.08-1.77-.56.76-.89.25-1.4 2.18-.57-.82-.11-1.66-.69-2.45-.47-.22-1.09 3.15-1.8.42-.48.72-.11 1.41-.74 2.14.34.93.73.54 1.12.32-2.58 3.59-6.25.35-9.24 1.45a6.48 6.48 0 0 0 .54 2.81c-.61.47-1.16-.65-1.78.43a3.91 3.91 0 0 1-.07-2.46c-1.42 0-4.16 3.49-5.43-1.14-.52 1.63.52 1.23.41 2.45a4.74 4.74 0 0 0-2.1.47c-.14-.58.06-1.18-.11-1.76-1-.64-2.94 3.53-3.38.54-.41.85-.24 1.67-.87 2.52-.47-.39-.91-2-1.44-.27-.63-3.67-2.77 1-4-1.51.11.7-.63 1.45-.37 2.14-.78-.73-1.56-2-2.41.51-.3-.92-.61-1.26-.93-1.36a4 4 0 0 1-.35 1.44c-.12-1.12-1-1.07-.64 0-.47-1-1.32-.7-2.23.14.23-1.53-.19-1.64-.78-1.71-.17.48.15.93.3 1.39-.81.61-1.59-.08-2.4.53.59 1.67.83-.4 1.09 1.69-.49.38-1 1-1.45.45-.17.61.25 1.16.45 1.74.59-.06 1.21-2.42 1.76-.48-.69-.41-.45 2.42-1.14 1.85-.23 1.6.37 1.72.92 2.06a6.21 6.21 0 0 0-.12-2.47c.64-1 .82.77 1.08 1.69.54 0 1 .54 1.61-.81-1.19.41-.83-2.2-1.72-1.65-.27-1.28 1-.68 0-2.13-.59-1.11.09 2.2-.5 1.1-.8-1.46-.09-.83.36-2.15-.21-.14-.42-.3-.64 0 .71-1.35 2.75.6 4-.61-.38 2.06.6.37.6 2.08a2.58 2.58 0 0 1-2.21-1.27c-.49 4.74 2.16 3.11 2.94 4.4 1.22-1.84.14-3.54.91-5.36 0 2.33 1.08-.7 1.56 1.32-.48-.33-1.91.57-1.49 2.57.95-2.39.8 1.19 2.09-.49.67-1.11-.13-2.12.55-3.22l.76 1.72a2 2 0 0 0-.36 1.44c1.45 1.66 2.95.9 4.41 1.85-.52 1.71-1 .45-1.46 1.15.86 1.15 2.43 2 2.89-.87-.43.28-.85 0-1.24-1.34-.14-1.33.78-.48.53-1.8 1 .31 1.75 3.1 2.56-.15.33 1.43.73.53 1.11.29 0 .59.3 1.16.1 1.76 1.21-1.27 3.15 1.15 3.88-1.62a13.92 13.92 0 0 1 2 1 6.92 6.92 0 0 0-.09-1.76c.63-.77.37 1.32.73 1.73.69-1.21.36-2.38.13-3.54.75-.65 1.63.08 2-2.22.16 1.41-.51 2.86.16 4.24-1.05 1.11-.25-3.08-1.54-1.34-.27 1.41-.05 2.24.53 2.8 1.2.6 2.56-2.9 3.75-1.94.54-2-.48-1.15-.88-2.08.58-1 1.07.1 1.58.63a4.54 4.54 0 0 1-.38 1.43c.4.38.62-.84.61.67 1-1.48 1.71 2.21 2.77-1.17 0 1.6 1.36 1.8 1.6-.06.38 3 1.9 2.83 3 1.66.28.45.08.93.25 1.4.9-1.22 1.78-.19 1.89-2.54l1 2.43c1.16-1.23-.2-2.35.51-3.56.62 1.44 1.32 1.13 2.07.3 0 1.17.63 2.33.76 3.51.53-1.43-.61-2.81.24-4.25-.19 3.45 1.87 3.21 2.95 1.69.78.66.55 2.8 1.48 2.07 0-1.25-.48-2.69.45-2.12a5.11 5.11 0 0 0-.61-3.16c.12-.37.22-.2.32 0l.36-.72c.46.93 0 1.88.48 2.81.75 1 .82-1.81 1.78-2.87.5 1.38 1.22-.63 1.76.32-.78 2-1.39 1.52-2 .75a6.27 6.27 0 0 1-1 2.5c.72-.38.53 1.21 1.47-.4.68.7-.48 1.42.19 2.12.81-1.75 2.29-1.33 3.49-1.82a.81.81 0 0 1-1.34.72c-.4 2.76 1.2 2.38 2 1.74.6-1.71-1.11-.11-.54-1.41.94-1.83.54 1.25 1.42.34-.7-3.39 2.42.46 3.75-2.88.26 1.44 1.4 2.27 2.11 3.86.17-3.12 2.55-.37 2.84.7a1.91 1.91 0 0 0 .43-1.41c.17 1.09.95-.15 1.49 1.4.75-2.58 1.13 0 2.19.7.31-.82 0-1.64.7-2.46 1.83 1.9 3.07.26 5 1.46.32-.91 0-1.75.65-1.76-.25 2.84 1 1.19 1.69-.68-.56 2.14.33 3.69 1.32 2.83.47-1.75-1 0-.62-1.77.34-.67.57-.3.92-1 .14.92-.35 1.75.3 1.78.25-.58-.3-1.19 0-1.77 1.13-.89 1.35.18 1.15 1.45.73.63.23-2.22 1-1.74a2.53 2.53 0 0 0 1 2.84c.52-2.08.51 0 1.33-1.72-.18 1.52.66 1.4 1.21.73.16-.83-.29-.43 0-1.76 0 2.22 2.82-.14 2.06 3.23.71-1 .92 2.2 1.65 1.12.65-1.52-.4-1.11-.63-2.85.66-.53 1.16.26 1.83-.27-.3 4.45 2.16 2.45 2.67 3.29a4.12 4.12 0 0 0-.82-2.5 1.4 1.4 0 0 0-.18 1.4c-.81.77-.36-1.06-1.11-1.46 1.13-.39 1.33.09 2.63-2.7.56.84-.29 1.63-.16 2.46.66-1.26 1.85-1.16 3.06-.85s2.45.87 3.22.48c.18.24 1.15 1.46.46 2.49.6 1.62 1.83-1.36 1.41 1.51.62-.9.23-1.87.42-2.8-.22-.38-.63.56-1 1-.3-1.43.72-2.2-.23-2.85.84 0 .8 1 1.64 2.22a3.91 3.91 0 0 1 .54-1.37c.35 1.23-.48.84-.54 2.44.38.69 1.07-.55 1.3 1.14-2.76 1.55-5.24 1.53-7.74 1.63-.81.67.21 1.42-.61 2.09-.6 0-.3-.86-.56-1.79-.84 1.38 0 2.83.38 4.25 1.36 0 3.36-3.08 4.77-.76.47.1 1.17-1.3 1.6-1-.7 1.54-.53 1.33.53.74.44.74-.21 1.4 0 2.12 1.63-2.6 1.58-.52 2.65-.51.57-.66.29-1.39 1-2-.32 1.52 0 2.59.82 1.84.57-.66-.58-1.47.36-2.1.09.75.36.42.64.06a4 4 0 0 0 .18 1.78 8.48 8.48 0 0 0 3.7-2.51c-.28 3 1.2-.6 1.57 1.23.58-1.28-.53-.49-.48-1.83.58.16 1.1.55 1.84-.15.27.35.22 2.28.7 1.49-.56 1.8-.33 1.63.18 3.22-1.14-.53-2.07 1.61-2.77 0-.88 1.51.15 1.28-.62 2.42a4.16 4.16 0 0 1 .12-3.18c-.28-.56-.72-.21-.92-1.16-.47 2.28-1.27 1-1.73.55-.68 1.48.45 1.38.24 3.21-.66.24-.58-.37-.71-1.47-.3.54-1 1.87-1.95 2a6.52 6.52 0 0 0-.47-2.87c-.4 1.14-.36 2.33-1.22 3.44-.24-1.08-.86 0-1.26-.11a18.19 18.19 0 0 1-.55 2.43c-1.55-.82-3.34-.26-5.11.38-.61-2.29-2 .76-2.71-.87-2.15 3.53-3.74-2.34-5.5 2.23-.14-1.31-.57-.45-.75-1.45-.59 1.33-1 1.36-1.52 2.06.52.88 1.23-.53 1.17 1.81 0-1.9.5-.87 1.12-1.37.18 1.51-.36 1.09-.81 1.38.51 1.71 1.35.78 2.08.79.38-.69-.55-1.18-.84-.74.51-1.81 1.85.17 2.69-.25-.54 1.33-.68-.31-1.23 1 1.5-.39 1.78 1.4 3 1.92.58-.79-.77-1.69.2-2.46.14.48.28 1 .41 1.44 1.57-1.35 3 0 3.69 1.26-.58-2 .8-1.34 1.67-1.66-.06.91.19 1.76-.44 1.74.62 2.73 1.45-1.31 2 .86a7 7 0 0 0 .68-3.14c.51-.49.78 1.92.66 2.54.47.9 2.23-2.13 1.92.5.27 0 1.47-.86 1.38-1.66.3 1.7 1.87 2.29 3.52 1-.64-.87-.61-.55-.9-2.57.65-.74 1.26-1.2 1.93-1.93.37.46-.95 2.41-.18 1.75-.08 1.85-.69-.12-.92-.1-.57 2.27.89 4 2.17 1.65 1.05 0 1.12 4.59 2.61 2.41l.3 1.45c.65-.62.27-1.38.45-2.07.72-.49.71 2.32 1.64.93.61-1.27-.37-1-.37-1.83 1.49 1.16 2.72 2.75 4.47.23.48.17 1 0 1.14 1.62a1.81 1.81 0 0 0-.58 1.69c1-1.59 2 .92 3.6-.84-.1-1-.23-1.84-.76-1.19.61-1.13 2.21-.89 3.06-.93.21 1.82-.52-.08-1.22 1.58.18 1.22 1 .23 1.08 1.63a2.84 2.84 0 0 0-.35 1.73c-.65.89-.56 0-1 1.25a1 1 0 0 1 .37.79c1.47-2.44 1.48-1.7 2.75-2.68 0-1.77-1.25.79-1.24-1 .72-1.22.8-.28 1.52-1.49-.71 1.3.28 2.66.87 2.68.29-.42.14-.93.13-1.4.9-1.55.81 0 1.6-1.12 0 .73-.84 1.27-.94 2 .64 1.38 2.16-.08 2.86 1-.61 1.77-.61-.45-1.34.4a8.06 8.06 0 0 1-.48 1c.92-.49.67.86 1.18 1.74-.72 1.88-1.14 1.11-.84-.57-.92.73-.11 2.18-1 1.94.26 1.14 1.04 1.71-.18 3.17zm-57.42 12.09c-.38-1.47-1.08 0-1.65.32.4 1.14 1.02.51 1.65-.32zm-46.62 13.71c.38 1.58 1.49.21.64 2.45.8.94 1.67.39 2.56-.47-.34-1.45-.48-.5-.77-2.79-.27.48-.57 1.45-.8 1.1s.17-.95.07-1.42c-.58.65-1.05-1.2-1.7 1.13zM42 62.86c-.65-1-.62-2.45-1.2-.86.09 1 .88 2.06 1.2.86zm-2.18-38.3c-1.07-.71-1.21-1.06-2.24-3.2-.23 1.6-.69.8-1.15-.15a15.32 15.32 0 0 0-.64 3.69c-1-1.26-.5-2.78-.39-4.23-1.25 1-.85 4.34.07 6.08.89-2.76 2.44 1.85 3.46.47.44-1.61-.69-.73-.52-2.06.59.76 1.59.76 1.43-.6zm100.54 5.53c.67 1.19 1.15-.49 1.78.09-.66-1.29-1.23-1.02-1.76-.09zm50.85 1c.21-1.26 1.31-1.06 1-2.63-.36 1.68-1.58.54-.98 2.65zm38.3-4.52c-.41.37-.9-.86-1.26.88.41 1.07 1.55.55 1.28-.86zM462.24 11a2.23 2.23 0 0 0 2.48-1c-.72.18-2.24-.7-2.48 1zm-17.06 22.72c-.08 1.58 3 1.21 2.67-1-1.01 1.72-1.65-.92-2.67 1zm64.82-.46c-.08-.6.16-1.17-.23-1.83-.49.68-.75.27-1.23.88.33 1.15.68 2.11 1.46.95zM422.64 83a7.09 7.09 0 0 0 3.39-.43c-1.03-1.19-2.19-.81-3.39.43zm30.95.22c.52-.19 1.78.36 1.89-1-.48-.06-1.74-.76-1.89 1zm16.32-1.89c-.09.51.12 3 .77 1.45.43-.9-.42-2.3-.77-1.45zM502.78 112c.44-.38 0 .54.12 1.1 1.09-2.08.48 1.32 1.58-.76.1-1.97-1.34-1.57-1.7-.34zm-22.3 5.83c.36.14.52 1.33 1.15.11-.26-1.94-1.05-.29-1.15-.16zm-21.9 10c-.14 1.37.79 1.4 1.46 0-.3-1.41-.9-.6-1.46-.02zm-4.29.23c.4.88 1.72.32 1.94-1.37-.7.89-1.12-.54-1.94 1.31zm44.58-70c-1.24.08-2.23-1.15-3.59-.44a2 2 0 0 0 3.59.43zm-59.94 93.82c-.08 1.59.9 1.56 1.54.36-.34-1.88-.92-1.34-1.54-.37zm25.41-47.14c.53 0 .88 1.15 1.55.06-.28-1.04-1.4-1.86-1.55-.07zm35.8-52.92c.49-1 1.33.67 1.39-1.25-.53.26-1.53-.87-1.39 1.24zm-1.07-1.2c-.72 1.94-.66.35-1.49.88.18.62-.63 1.11-.52 1.72.92-.08.94-1.4 1.45.17l.76-1c-.07-.58.15-1.15-.2-1.78zm-4.34 4.09c.57.26.92 1.62 1.81.22-.27-1.8-.97-1.41-1.81-.23zm-27.18 33.22c-.24-.62-.52-1-.87-.75.56 1.19-.37 4.52.81 3.57.51-1.64-.67-1.75.06-2.82zm21.82-34.87c.15.49.31 1 .47 1.46l.71-1c-.17-1.45-.73-.62-1.18-.46zm15.32-19.9c.82-2.36.74.28 1.71-.47.6-2.26-2.57-1.69-1.71.47zm-40.58 53.92c-1.23 1.45-2.06-2-3.05 1.28.18-2.12-.94-2.09-1.64-1.1 1.49.52.92 3 2.17 4.65 1-2.83.53.35 1.21-2.06.74.57 2.16 2.2 2.66.47-.17.22-1-.14-.55-.74.48.45 1 .26 1.7-.63-.26-1.28-.81-.41-1.38.65-.35-1.08-1.34-.6-1.12-2.52zM442.46 129c-.16 1.78.74 1.32 1.24 1.06.12-1.48-.7-1.87-1.24-1.06zm25.84-46.68l-.83 1.37c.2.91.48 1.27.87.74-.63-.73.59-1.38-.04-2.11zm29-46.89c.29 1.65 1.45-1.46 1.66.56.8-.88.41-2.48 1.42-2.31-.82-2.68-1.85 1.59-3.04 1.75zm-14.07 18.84c.35 1.11.66 2.6 1.42 1.19-.51-.17-.65-2.46-1.42-1.19zm9.39-12.6c1-1.91-.41-4.58-1.49-3.35-.23 1.34.13 2.33.51 2.54.36-1.8.85-.58.98.81zm-39 50.73c.22-1.82.7-.64.87.73.43-.11.64-.46.79-1.38.92 1.74 2.31-.75 3.21 1.13.61-.84.32-3.11.92-1 .67-1 1-3.84 0-2.82a1.42 1.42 0 0 1-.17 1.41c.36-4-1.65-2.83-2.59-4l-1 1.74c-.62-.19-1-2.28-1.84-.75 0 2.23 1.46 2.68 2.32 2.18-.22.49 0 .6.24.7-.54.1-1.24 1.58-1.74 1.37-.58-2-1.21-3.58-2.2-1.81 1.27 0 .76 1.57 1.15 2.5zm28.59-39.27c-.2-.72.67-1.37.32-2.1-.59 1.54-.57-.92-1.16.62.36 1.21 0 2.36.52 3.58l.69-1c-.17-.38-.29-.74-.41-1.1zm-58.1 101.44c-.3 1.09.58 2.51.95 1-.3-.47-.49-2.57-.95-1zm8.9-23.44c.15 2.41 2-.74 1.38-.37-.48.36-.82-.99-1.39.37zm53.12-90.81l.51 1.48c.26-.45.7-.88.59-1.37-.45.46-.14-1.71-1.1-.11zm-7.93 7.21a1.59 1.59 0 0 1-.42 1.75c.21.6.41 1.2.62 1.81.57-.24 1.23-1.13 1.84-1.64-.73-.27-1.34-1.38-2.04-1.92zm7.68-7.93a8.89 8.89 0 0 1 .31-3.16c-.48.66-.66-.57-1.2.61 1.07 2.59-1.49 1.1-1.38 3.08.88-1 2.19 1.46 2.74-1.2zm-11.51 12.63c.63-2.51 1.16 0 2.06-.93-.01-3.21-2.19-1.8-2.06.93zm-1.48.64c-.67.28-.49 2.21-.87 1.37-.19-.84.35-1.64.15-2.47l-.87 1.37c.18.6.47 1.2-.06 1.77.28.93.57 1.8 1.06 1.1a1.34 1.34 0 0 1 .19-1.4c.53.74 0 1.41.41 2.14.96-1.24-.01-2.59-.01-3.88zM467 61.76c.55 1.5 1.28 1.46 2.24-.24-.65-1.1-1.44-.72-2.24.24zm16.27-22.71c-.78-.92-2 1.21-2.75.14.53 1.57 1.08 1.26 2.18 1.23a1.81 1.81 0 0 1 .52-1.37zM450 88.47c.17.47.34.94.5 1.41.58-1.48 1-1.48 1.28 0l.58-1c-.66-1.3-1.54-.56-2.36-.41zm28.86-46.92c.65-.73 1.08.08 1.77-.92-.26-1.3-1.71-.63-1.77.92zm-53.51 91.84c.73 1 1.65-.65 2.4-.06-.1-2.33-1.59-.76-2.4.06zM484.26 32a6.21 6.21 0 0 0-.18-2.49 1.31 1.31 0 0 0-1.48-.12 11.31 11.31 0 0 0-.27 3.17c-.49-2.57-1.46-1.86-2.27-2.29-1.12 2.4-1.79 1.95-3.15 3 .29 1.86 2.42.58 3.63.25a2.39 2.39 0 0 0-.43 1.74c1.08.09 1.49-.49 1.16-1.68.78.47 3.19 1.92 4.46-1.44-1.04.91-.61-.37-1.47-.14zM472.5 47.9c0 1.79.21 2.78 1.33 1.84-1.17-.01-.13-2.06-1.33-1.84zm8.6-11.84c-.5.47-.87.06-1.42.95.32 1.3 1.73.64 1.42-.95zm-33.33 52.38c-.29.3-.55.27-.76-.35l-1 1.74c-.91-1.7-1.33-.21-2.42-1.43.25.71-.36 1.41.13 2.12.76-1.35 1.32-.58 1.9 0a4.88 4.88 0 0 0 0 3.53 5.14 5.14 0 0 0 1.59-1.75c-.36-1.18-.93-.25-1.26-1.78.44-1.4 1.57-.61 1.82-2.08zm-.64 1.76c.42 1.08 1 .76 1.66-.69-.45-.84-1.1.32-1.66.69zM476 38.54c-.88.66.25 1.43-.63 2.09.36.88.83.9 1.41.07.22-.92-.27-2.17-.78-2.16zM418.28 143.1c.34.85.68 1.72 1.15.66-.32-1.27-.74-.97-1.15-.66zm59.2-107.31c-.46.56-.35 1.16-.77 1.73.27 1 .73.7 1.3-.28-.18-.48-.35-.96-.53-1.45zm-18.6 25.69a4.32 4.32 0 0 0-.69 1.74c.68.4 1.3 1.34 2.21-.28-.4-1.64-1.15.29-1.52-1.46zM474 38.78c-1.12 1.3-1.82-.67-2.93.56 1-.26 1.6 2.38 2.74.86-.13-.49.32-.94.19-1.42zm-5.2 7.52c-.17-.49-.35-1-.52-1.45a7.19 7.19 0 0 0-.82 2.44c.61-1.29.82.33 1.38-.99zm6.63-11.3c-.11-1 1.42-1.82.73-2.8-.89-.08-.2 1.49-1.22 2.41l.66 1.8c.32-.82 1.32-.36 1.13-1.7-.37-.42-.9.41-1.3.29zm-33.71 55.16c.76-.79.47 1.47 1.4.36-.25-1.46-1.37-2.3-1.4-.36zm22.33-43c.61.24 1.16.91 1.85.42-.43-1.72-1.18-.73-1.85-.42zm-52.29 97.93c.31.52.61 1.37 1 .32.11-1.36-.51-1.89-1-.32zM458.15 54c.68-.45 1.22.26 2-1-.39-1.34-1.92-.14-2 1zm-19.92 36.18c-.72-.26-1.52.38-2.28.72.54 1.5 2.39 1.95 2.28-.72zm31.28-64.37c.56 1.32-.13.41-.53 1.39.25 1.45.92-.64 1.22.41-.84 1.91-1.33 1.11-2 2-.22.62-1.15 3-.11 2.47-.21-1.35.73-.41 1.1-1.73.46 2.15 1.47-.26 2.07.82.75-1.68 1.16-2.07 2.06-2 .22.61-.55 1.15-.4 1.75 1.84-1.84 1.12-3.35.78-6.32-.48.56-.25 1.16-.4 1.75-.23-.6-.7.73-.94.3a4.1 4.1 0 0 0 .75-1.73c-.52-1.16-1.15 0-.69-1.81-.43 0-.81-.41-1.4 1 .15.77.69.42.42 1.09a3.09 3.09 0 0 0-1.93.61zm-6.66 11.77c.16-1.28-.49-.9-.89-1.44-.54 2.08-1.37.57-2.25 1.34.58 2.12-.75 0-1.26 2.07.67.8 1.59-.74 2.3-.28 1.13 2.11.3 6.15 1.89 5-.85-1.27-1.58-5.55.21-6.69zm-56.08 105.61c-.17.83.69 1.61 0 2.47-.76-1-.31-2.11-.6-3.15-.28.75-.52.4-.8 1.09.32 2.66.88 3.24 1.21 5.59 1.23-2.77 1.41-2.54 2.59-3.64-.54-1.25-1.33-2.72-2.4-2.36zm27.65-53c.14 1.45.63 1.84 1.34 1-.42-.64-.89-.71-1.34-.99zm39.73-68c.24.72-.65 1.38-.26 2.11.81.47 1.2-2.65.26-2.13zM459.06 42c.36 1 .73 1.91 1.09 2.87.27-.43.46 0 .76-.68.34-1.52-.91-3.09-1.85-2.19zm-26 48.87c-.48.86-.83.45-.61 1.78.37-.7.6.51 1-.72-.09-.31-.22-.66-.36-1.02zm13.53-28.6c-1.05 1.64.39 2.73 1 1.78-.24-1.3-.71-.4-.97-1.74zm21.13-33.74c-.35-.05-1.24 1.45-.81 2.44.59-.76 1.09-1.57.84-2.4zM432.3 88.82a.73.73 0 0 1-.06.71c-.22-.63-.48-.63-.77-.35.45 1.12 1 1.44 1.54.68-.23-.46-.42-1.41-.71-1.04zm1-6.71c.63-1.24 1 1.24 1.61 0-.38-1.23-1.6-1.81-1.64 0zm43.05-74.69c.15 1.55-.85.63-.52-.38a3.56 3.56 0 0 0-.49 2.45c.89-.32.59.66 1.87.11-.11-1.12-.34-2.02-.86-2.18zm-79.91 138.39c.35 1.26.8.07 1.2-.06-.34-1.25-.75-1.23-1.2.06zM436.32 63c.31 1 .72.67 1.18-.35-.31-1.03-.72-.65-1.18.35zm-16.41 31c-.79 1.1 0 3 .55 1.4-.39-.91.03-1.28-.55-1.4zm13.49-29.19c-.61-1.47-2.22-.94-2.53 1.1.84-2 1.39.29 2.1.32-.21-.99.46-.13.43-1.42zM388.68 148c.64.42 1.28.88 2-.48-.61-.85-1.79-1.45-2 .48zm70.68-135.26c.43-.54 1.72-.67 1.65-2.09-.32-.6-1.74.84-1.65 2.09zm-16.47 19.55c-.71 1.78-1.22 1-1.88 2.12.52 1.29 1.31-.71 1.74 1.77.43-1 .7-.12 1.14-1.41a6.84 6.84 0 0 1-1-2.48zm-27.21 49.49a2.89 2.89 0 0 0-.33 3.2c.51-.29.78-2.15 1.54-1.82-.34-1.68-.89-.1-1.21-1.38zm30.64-66.42c.55 1.23 1.11 2.27 1.79 1.77-.54-1.21-1.04-3.13-1.79-1.77zm-17.06 32.57c.32 1 .73.66 1.19-.37-.32-1.04-.74-.66-1.19.37zm5.95-13.49c.55 1.09 1.12 1.73 1.85.34-.55-1.04-1.22-.46-1.85-.34zm-4.83 6.41c-1 1.42-1.76-.54-2.69 0 .39 2.54 1.51 1.5 2.75 1.72.14.52 0 1.28.48.35a4.23 4.23 0 0 0-.54-2.07zm-15.68 25.8c.74 1.46 1.55 1.25 2.38 1-.73-1.65-1.56-1.26-2.38-1zm27.82-54.49c.4.86.89.59 1.36.71-.25-1.18.27-2.35-.09-3.53-.79.94-.56 1.88-1.27 2.82zm2.71 1.43c.43-1.77.79-1 1.58-2.11-1.18-.36-1.82-4.25-2.72-1.42.97.57.77 2.05 1.14 3.53zm-3.13 1.75c.48-1.45 1.58.52 1.52-1.41-.65 0-1.26-.54-2 1.05a1.59 1.59 0 0 1-.3 1.77c.51.92 1.08 1.13 1.69.72-.22-.72-1.32-.78-.91-2.13zm-13.43 20.58c.5-.73.87.56 1.4-.72-.28-1.14-1.54-.33-1.4.72zm2 0c-.44-.82.63-1.65 0-2.47-.76.62-.67 2.99.03 2.45zm-4.29 6.78c-.37-1.28-.84-.86-1.25-1.38-.54 1.51-1 1.12-1.43 1.45.68.69.36.75.88 2.09.38-1.37.64-1.93 1.19-.38a4.4 4.4 0 0 0 .64-1.8zm-28.45 52.54c.38 1.54 1.09.85 1 2.42l.35-.72c.09.19.19.35.31 0-.19-1.66-.93-2.69-1.66-1.7zm-21.62 51.46c-.41.56-.75-.31-.78 1.12.37 1.45 1.17-.05.78-1.12zm64.35-133.13c.51.14 1.06-.2 1.66-1.06-.32-1.89-1.78.49-1.66 1.06zM401.89 83c.61.84 1.24.81 1.92-.09-.6-.81-1.24-.77-1.92.09zm31.81-66.91c.4-.45.16.54.46 1.06.75-.32.94-2.41 1.78-.72 0 1.22-1.09.88-.69 2.48.68 0 1.14-.61 1.53-2.14-.78-1.99-2.58-2.87-3.08-.68zm-26.45 54c-.72.53-1.34-1.53-2.12.44.54 1.37 1.15.76 1.71 1.69a2.56 2.56 0 0 0 .41-2.13zm14.57-31.9c-.35.12-.7.5-1.08 1.44.36 1.63 1.5-.36 1.08-1.44zm9.26-21.72a3.52 3.52 0 0 1 .26 1.41c.35-.11.72-.49 1.13-1.42-.41-.85-.87-.85-1.39.01zM418.43 39c.49.11.87 2.36 1.45 1-.45-1.08-.88-1.45-1.45-1zm-5.13 6.17c.56 1.7.88-.36 1.07 1.73a4.5 4.5 0 0 0 .59-1.79c-.49-1.34-1.04-1.32-1.66.04zm3.68-.83c-.73 1.51-1.25-1.36-2 .77.44 2.01 1.9 1 2.02-.79zm11.43-23.57c.35 1.83.9.2 1.42-.73-.38-1.22-.94.42-1.42.71zM416 40.48c.37 1.41.86.39 1.29.65.11-1.63-.72-1.93-1.29-.65zm-1.87-2.77c.8 1.47 1.16 1.56 1.17 3.49.6 0 .47-1.2.77-2.15-.38-1.26-.85-.84-1.27-1.36.24-.38.68-.19.55-1.08-1-.77-1.5.61-2.25 1.84.14.58 0 1.18.41 1.75.74-.85.36-1.66.64-2.49zm-2.68 4c1 1.36 2.16 1.13 3.29.6.04-3.37-2.08-1.79-3.27-.63zm18.12-31.9c.83.62 1.75-.25 2.63-.39-.81-.79-1.65-1.16-2.61.36zm-5.78 10.71c0 .94 0 2.73.76 1.75.04-.44-.25-2.52-.74-1.78zm1.66-8.15c-1 .84.59 1.63 0 2.47s-.83-1.45-1.37 0c.82 1.62 1.78.9 2.71.65-.08-1.49-1.06-.85-1.32-3.15zM410 46c-1-2.15-2.29 1.15-2 3.25.56-1.45.49-2.15 2-3.25zm0-4.59l.75 1.74c.19-.48.55-1 .4-1.42-.45 1.03-.69-2.32-1.15-.35zm7.51-17.2c-.54.84-.17 1.65.05 2.47.24-.44.44 0 .71-.73-.27-.61-.52-1.2-.77-1.77zM420.8 16a5.57 5.57 0 0 0 0 3.88c.85-1.32.64-3.75 0-3.88zM411 37.46c-.42-1.62-1.36.38-1.4 1.46.74 1.61.61-.35 1.4-1.46zm6.92-21.77c-.32.66-.62 1-.91 1.09.79.83 1-.62 1.45 1.72.38-2.23.86-.44 1.62-1.81-.67-1.31-1.49.42-2.16-1zM413 19.38c1.19-2.47 3 .71 3.65-1.88-1.01.19-3.65-1.95-3.65 1.88zm1 0c.3.7-.32 1.42.24 2.11.3-.37.57-.19.89-1.09-.71-.52-.34-1.73-1.13-1.05zm-5.9-.86c-.45 1.36-.78-.26-1.23 1.1.43.69.86 1.13 1.33.66-.2-.62.05-1.21-.09-1.79zm-15.83 24c.56.15 2.19 1.68 1.84-1.15-.54 1.55-1.83-.37-1.83 1.16zm-17.4 37.82c-.76 1 .09 3.14.59 2.08-.46-.67-.02-1.42-.59-2.08zm17.95-39.61c.36 1 .77.14 1.17-.41-.42-.61-.3-3-.76-2.43a13.33 13.33 0 0 1-.41 2.84zm-.4-3.15c-.87 1-.21 3.53.42 2.45a3.22 3.22 0 0 0-.42-2.45zm7.36-17c-.57 2-1-.57-1.55 1.13a2.33 2.33 0 0 0 2.49.95zm-7.28 14.17l.62 1.37.54-1.09c-.35-1.42-.76-.51-1.16-.28zM389.33 42c-.8-1.75-.77 1.22-1.68 1.5.53.55 1.59-.14 1.68-1.5zm-2.19 1.89l-.69 1.45c.31 1.25 1.47 1.66 1.32-.07-.46.82-.58-1.08-.63-1.4zM369.77 80c.37.2.75-.69 1.13-1.14-2.23-.31-4.46-.54-6.72 1.19.61 2.56 1.3-1.34 1.91.57-.43.87-.81.49-.5 1.8.7 0 .43-1.53 1.15-2.55.67 1.73 1.39-1 2.06.91-.43.34-.85 0-1.3 1.5.31 1 .64.08.94 1.36.59-.57-.09-2.76.67-2.18.45.79-.52 1.69.12 2.47.32.22.64-.14 1-.78-.05-1.07-.69-2.08-.46-3.15zm19.69-43c-.82 2-1.55.38-2.35 1.54.4 1.41-.21 2.62.75 3.14.81-1 .23-1.9.4-2.85.48.4 1-.09 1.46 1 .62-.97.22-1.89-.26-2.83zm6.42-15.18c.53 1.12 1 2.59 1.63 1.33-.51-.51-1.03-2.46-1.63-1.3zM382.71 51.2l.63 1.37.51-1.09c-.35-1-.73-1.34-1.14-.28zM378 43c-.28-.29-.54-.23-.83.4 1.14 1.78 1.86-2.72 2.52-3.34.26.57.52 1.15.79 1.72 1.3-2.19 2.55-1.88 3.8-1.29a7 7 0 0 0 .9 3.48c.16-2.75.59.92 1.33-.79a18.06 18.06 0 0 1-2.35-5.18c-1.14 3.2-2.94-.17-4.26-.45.13.71 1 1.36.61 2.09-.58-1-1.19-.55-1.78-1.66.23-.38.67-.21.52-1.09-.64 1.23-2.05-1-2.16 1.19.83-1 2 1.64 1.25 3.46 0-2.57-2.22-1-2.3.14.61-.08 2.41-1.23 1.96 1.32zm-.6-3.5c0-.79-.66-1.72-1.12-1.7.28 1.11-.75.33-1 1.48.72 1.22 1.39.52 2.11.23zm18.47-16.95a2.3 2.3 0 0 0-2.52.48c.76.68 2.2 1.53 2.51-.47zm-7.19 12.75c.34-.42.64.77 1-.76-.18-1.83-1.27-.15-1 .76zm-3.16 1.23c.37 1 1.59 1.42 1.49-.43-.51.6-1.01-.18-1.49.43zm6.33-13.77c0 1.06.79 1.82 1.32.64-.41-1.26-.87-.96-1.32-.64zm-29.43 58.47c.1 1.58.95.19.77 2.42.81-1.05-.28-3.51-.77-2.42zm-1.75-.23c0 1.57.8 1 1.25 2.73l.48-1.1c-.57-1.1-1.14-2.74-1.73-1.63zm20.39-43.84c.39.25 1.59 1.49 1.49-.45-.55.43-.98-.59-1.49.46zM384.44 26c.36 1 .74 1.35 1.15.29-.36-1.01-.74-1.36-1.15-.29zm-10.2 15.49c-.44.18-.87-.09-1.31.09.52 1.19.5 2.54 1.28 2-.28-.66.45-1.42.03-2.1zm-3.48 3.42c-.28.66-.56 1.07-.83 1.12l.31.69a.68.68 0 0 0 0 .7c.92-1.67.2 1.52.62 2.08.39-.54.75.32 1.15-1.13-.75-1.15-.73-2.32-1.25-3.47zm2.06-6.5c-.23.6-.68 1.22-.52 1.8.77-.71 1.51 1.3 2.31-.87-.83-1.06-1.33.53-1.79-.94zm-47.63 109.86a2.75 2.75 0 0 0 .33 2.8 1.21 1.21 0 0 1 .61-.77c0-.94-.54-2.1-.94-2.03zm28.31-67.75c-.53-.7-1.06-.34-1.6.84.49 1.25.51 3.93 1.42 2.36-.46-1.4-.78-2.56.18-3.2zM367 46.23c.62 0 .79-1.24.68-2.18 1.12 1.61 3.14.74 3.78-2-1.41 1.69-3 .82-3.91-.44a5.42 5.42 0 0 1-.37 2.86c0-1.53-.09-1.64-.79-1.71-.38.6-.12 1.18-.18 1.77-.32-1.89-.35-.59-1-.64.49-1.49-.52-1.75-1-.63 0 1.22.68.82 1.12 2.4 1.17-.5 1.27-1.54 1.67.57zM380 15c-.91 1.52-1.48-1.85-2-2-.75 1.86.29 1.56.6 3.5.36-1.44.67.12 1 .65A2.49 2.49 0 0 0 380 15zm-12.61 24.83a10.54 10.54 0 0 1-2.14 1.17c.48.71 1 1.07 1.46 1-.29-.53 1.34-.33.68-2.17zM373.91 21c0 .94.66 2.69 1.13 1.69-.38-.4-.73-2.47-1.13-1.69zm1.09-7.16c.36 1.31.76.38 1.14 1.69-.46.88-.85.49-.54 1.8.52-.49 1.88.17 1.87-1.88-.67-1-1.37-2.87-2.47-1.61zm-11.57 29.81c-.31 1.7-1.38-.86-1.15 1.15.45.36 1.61.97 1.15-1.15zM367 30.3c.65.48 1.31.21 2 .58-.06-.99-1.92-2.33-2-.58zm6.3-13.52a3.88 3.88 0 0 1 .31 1.4c.41-.73 1.65-.42 1.52-1.87-.61 1.07-1.19-1.09-1.82.47zm-16.71 26.69c1 1 2.61.85 3.9 1.11-.25.85-.66 1.71-.18 2.5.23-3 .69-.79 1.64-2.25-.59-1.35-1.07-1.34-.78-3.84-1.12 4.01-3.01.87-4.58 2.48zm-41.42 105.47c.5-.61 1.05 1.49 1.54-.16-.43-.53-1.65-1.52-1.54.16zm27-67.81c-.32 1.15-.64 1.18-1 .07-.63 2.22 1 4.66 1.92 3.38-.88-1.42-.83-1.53-.9-3.45zM370 17.72c1 .77 2-.2 3-.2l-.48-1c-.88.96-1.71.21-2.52 1.2zm-16.2 37.64c.65-.17 2.14.4 2.27-1.59-.69.93-2.18-.9-2.3 1.59zm1.65-7.2c-.87 1.61-1.73.32-2.61 1.62.92 1.56 2.7.53 3.09-.59-.33.48-.49-.5-.51-1.03zm13.2-31.06c.26.57-.38 1.2-.19 1.78.45-.76.88.52 1.34-.8-.38-.9-.75-1.73-1.15-.98zm-3.17 1.28c.54 1.38 1.09 1.2 1.65.59-.54-.34-1.13-1.47-1.65-.59zm-10.2 25.18c-.92-1.56-1.11.21-1.8 1.92a3.78 3.78 0 0 1 .52 1.72l.33-.73c-.33-1.7.13-2.34.95-2.91zm11.92-30.25c-.9.48-1.77-1-2.67.89.86.28.55 2.61 1.3 2.74.91-.8 0-3.26.69-2.88.24.81-.19 1.66.47 2.44a6.33 6.33 0 0 0 .21-3.19zm-4 5.23a4.28 4.28 0 0 0 .64 2.08c.46-1.73.89-.2 1.34-1.51l-.32-.68c-.56 1.41-.86-.29-1.7.11zm-13.46 26.18c.77-.12 2.87 3.08 2.61-.22-.88 1.59-1.74-1.5-2.61.22zm-4.87 6.07c.43.68.86 1.09 1.3.6 0-1.05-.82-1.8-1.3-.6zm-.16-3.88c1-.86 3.46 1.65 3.41-2-1.03 1.85-2.92-.14-3.41 2zm-5.65 9.34c.44 1.24.87.93 1.3.59 0-1.12-.83-1.38-1.3-.59zm1.12-5.41c-.91 3.08-1.83.69-2.75 2 .55 2.14 2.34.18 3.4 0-.46-.6-.06-1.34-.65-2zm-.33-1.39c-1 2-1.05-2.58-2.11-.87.88 1.14.45.83.82 2.41.44.06 1.77.4 1.29-1.54zm-5.5 1.21c.49 1.39 1 1.43 1.46.93-.02-1.3-.97-2.79-1.46-.93zm10.81-27.52c.56 1.85 1.1.71 1.65.58-.55-.34-1.1-1.46-1.65-.58zm.33-1.44c.34 1.06 1.52.63 1.32-.82-.44.92-.88-1.07-1.32.82zM343 25.8c.28.68-.45 1.45-.32 2.15.38 1 .77 1.33 1.15.26-.5-.58.07-3.02-.83-2.41zm.15-7.45a7.88 7.88 0 0 1 .5 3.15c-.39-.7-.77.19-1.15 1.15.83.89 1.65 3 2.47 1.57-1.22-1.62-.24-7.65-1.79-5.87zm-14.72 38.87c.3 1.53 1.38.87 1.12-.46-.37.57-.76-1.02-1.12.46zm12.3-33.35c.38 1 .77 1.33 1.15.25-.39-.99-.78-1.32-1.15-.25zm-10.44 25.38c-.76-.26-2.19-.65-2.41 1.3-.6-1.13-1.69.91-1.8-1.61l-.63 1.48c.44 1.3.81.35.83 1.7.92-1 1.4-1 1.62 1.26.69-.78.13-1.44.31-2.16l.82 1.69c.79-2.11-.03-3.09 1.26-3.66zm-5.79 2.68c-.88 2.19 1.1 3.53 1.64 2-.2-.58 0-1.18-.19-1.76-1.05-.17-.71 2.6-1.45-.24zm-1.81-2.31c-.78 1.37.05 2.6.54 3.85.26-.55.54.57.8-.43-.61-2.31-.92-.85-1.34-3.42zm-3.92 8.53c.49.62 1 1.43 1.45.22-.5-1.2-.98-1.2-1.45-.22zm-43.64 88.93c-.39-.68-1.58-1.28-1.38.51.38-.91 1 .38 1 1.31a4.74 4.74 0 0 0 .38-1.82zM310 53.37c-.9 2.18 1.61 4.6 1.48 1.62-.69 1.01-.64-1.45-1.48-1.62zm-37.36 93.3c-.86-.6-2.55-1.69-2.77 1.05 1.09-1.19.53 1.74 1 2.71.55-1.36.29-2.64.34-4 .55 1.71 1.46 2.25 1.42.24zm-4.82.24c.4-.36.85.62 1.24-.16.02-2.22-1.88-1.52-1.25.16zM310 24.64c.56.81 1.1.76 1.63-.16-.63-1.56-1.14-.67-1.63.16zm-3-1.83c-.47-2.72-.78 0-1.3.13.39-1.91-.44-3.15-.74-4.18-.77 1.62 1 3 .26 4.59-.18-.57-.1-1.17-.52-1.72a2.34 2.34 0 0 0-.94 2.23c.91-1.31 4.45 4.92 3.58-.38.66-.09 2.2 1.37 2.27-.93-.42-1.34-2.28-1.55-2.61.26zm-1-3.44c.84 1.19 1.65.92 2.47.81-.9-.96-1.74-2.07-2.53-.81zm-48.64 123.16c-.65 1-2.26-2-2.32.65.72-.29 2.18 2.07 2.32-.65zM303 18.26c-.2.61-.63 1.25-.45 1.83.79-1.18 1.14-.86 1.49.9.44-2.06-.46-2.13-1.04-2.73zm-3 4.23c-.35 1.39-.78-.72-1.12 1.17.44.74 1.59.22 1.12-1.17zm1.13-7.93a2.54 2.54 0 0 0-.28 2.15c.21-.38.41-1.11.64-.77.16.18.34.66.5.3zm-51.58 128.25c.19.57.13 1.18.54 1.71.31-1.48.71-.63 1-1.2-.51-.99-1.09-1.73-1.54-.51zM294.08 22.4c.12.69-.7.86-.78 1.15-.21-.57 0-1.18-.21-1.75-.86-.21-1.11 1.76-.41 3.23.86-.41 1.74-.07 2.58-1-.65-.7-.89-1.65-1.18-1.63zM246.87 146l.57-1.49c-.55-1.57-1.33.49-.57 1.49zm43-121.73c-.5-.53-1-.75-1.45.51.52 1.15 1 .83 1.47.2a.69.69 0 0 1 0-.7zm-50.1 117c-.34.57-.72.22-1 1.2.24.39-.06 2.53.54 1.71-.36-.89 0-1.79.42-1.13a5.84 5.84 0 0 0 .09 2.13c.28-.74.65.43.9-.83-.84-.98-.11-2.15-.93-3.1zm45.13-120c-.69.77-2.29-.43-2.41 1.33.47-.56 1 .24 1.47.18-.25.78-.52.45-.78 1.16a3.2 3.2 0 0 1 1.21 2.35 31 31 0 0 0 .53-5.01zm-48.23 120.4a12.25 12.25 0 0 0 .58 2.41c.33-1.08.13-3.57-.58-2.41zm44.89-118.24a7.24 7.24 0 0 0-.35 4.65 1.31 1.31 0 0 1 .62-.78c-.39-1.3.58-2.67-.27-3.87zm-46.21 120.19c.41 1 .79 1.3 1.11.21-.41-.98-.79-1.3-1.11-.21zm44.07-121c.88.29 1.76.77 2.6-.3-.94-.28-1.14-.92-1.82-.85a1.4 1.4 0 0 1-.13 1.08c-.23-.38-.46-.7-.65.06zm-1.26 1.56c.21.57-.13 1.2-.1 1.79 1 1.41 1.87 1 2.76 0-.54-.89-.19-1.87-.73-2.76-.63.7-1.3.18-1.93.96zm-46.81 117.5a4.62 4.62 0 0 1 .93 3.07c.42-1 .94.07 1.38-.54-1-2.19.39-1.42-.13-2.82-.67 1.43-1.48-.39-2.18.28zm45.56-121.27c-.33.63-.14 1.2-.44 1.83-.17-.34-.08-.71-.19-1-.68.91-.26 1.69.24 2.46.21-.39.4-1.12.63-.78a1.78 1.78 0 0 0 .36 1.38l.46-1.12a4.37 4.37 0 0 1-1.06-2.77zm-2.12 5.21c-.57-.82-1.08.19-1.62.19.6 1.7 1.64 1.92 1.62-.19zm-3.66-2.41c-.49-.22-1-1-1.47-.19.49 1.64.88.3 1.32.56-.07.36-.29.74-.12 1.08a4.26 4.26 0 0 0 .27-1.45zm-3.64 2.92c.52-.81 1.1.46 1.6-.9-.48-.9-1.75-.81-1.6.9zm.35.67c-.15.21-.32.15-.5-.3a2.55 2.55 0 0 0-.25 2.16c.26-.45.54-.08.8-.45-.23-.45.11-.96-.05-1.41zm-3.71.79c.93 1.63 1.78 1.34 2.61.4-.91-1.47-1.74.2-2.61-.4zm-.62-3.84c.4 2.44 1.41 2 2.17 1.52-.76-1.49-1.5-2.55-2.17-1.52zm-3.88 5.09a4.9 4.9 0 0 1-.42 1.82c.75 1.24 1.48 1.86 2.12.11a2.08 2.08 0 0 1-1.7-1.93zm-9.73-4.14c.41.95-.5.19-.59 1.5.33 1.09 1.37-.18 1.09-1.2-.33.62-.21-.77-.5-.3zm-66.58 4c-.4.6-.85.26-1.2 1.6.74 1.53 1.39 1.66 2 1.85l.42-1.13c-.9-.69-.74-.4-1.22-2.34zm-5.19 2.54c.6-1.82 1.7 1.05 1.34-2-.34.88-1.6.1-1.34 1.98zm-55.62 111c1.62 2.3-1.49.91.31 4.24.42-1.61.26-1.71 1-1.94-.23-.99-.66-3.47-1.31-2.31zm1.87 4c.18-.4.34-1.14.57-.82.28.71.12 3.28.83 2.74.06-.85-.38-1.62 0-2.51-.86-.2-1-3.19-1.82-3.27-.11 1.3-.34 2.62.42 3.84zM162.21 30c-.55-.93-1-.36-1.47-.13.07 1.22.74.77 1.28 2.3.51-.79-.08-1.42.19-2.17zm-42.07 112.26c-.36 1.25 0 2.37 0 3.58.36-.79.93 1.33 1.24-.2-.61-1.74-.68-1.49-1.24-3.38zm38.77-110.7c.74-.8.69 1.59 1.33.51.1-.83-1.68-2.85-1.33-.51zM119.7 142.69q-.56-1.17-.93.15c.22.84.42 1.43.72 1.31a2 2 0 0 1 .21-1.46zM111.26 27.9c.5-1.21 1.26 1 1.79.07-.63-1.81-1.97-1.88-1.79-.07zm-2.61-.3c.79-.24 1.66.51 2.37-.74-.9-1.29-1.71-1.24-2.37.74zM107.4 26c.25.44.5.87.74 1.31l.4-1.13c-.48-1.37-.79-.43-1.14-.18zm-47 63a4.35 4.35 0 0 0 .6 3.48c.82.82 1.92.56 3.2 2 .13-.5.4-1 .2-1.47A13.72 13.72 0 0 0 60.39 89zm-4.29.39a4.26 4.26 0 0 0-.11 2.18c1.09.2 2.25 1.27 3.27.86-1.09-1.25-2.1-1.79-3.17-3.03zm21.57-66.34c.23 1.38 1.54 2.66 2.09 1.8-.77-1.78-1.42-1.48-2.09-1.8zM51.06 86.7c1.52 1.68 2.76 2.22 3.65 5.09l.51-1.52c-1.01-.63-2.48-5.15-4.16-3.57zm14.47-73c-.32-.59-.62-.92-.89-.92-.69 1.79.8 3.21-.22 5.05.61.2 1.34 1.76 1.79.06-1.04.16-1.53-2.2-.68-4.24zM39.47 89.47c-.39 1 .22 1.87.25 2.83.32-.59.77.24 1-1.26-.44-.77-.72-.3-1.25-1.57zm3.88-29.71c-.41.5-.93-1.95-1.21-2.65-.61.82 0 1.43-.12 2.17-.18-.17-.33-.06-.45.44.83.25 1.49-.17 1.34 2.27.39.01.56-1.31.44-2.23zm3.52-34.65c.28-1.1.84 1 1.09-.55-.42-1.5-1.45-.76-1.09.55zm-4.47.78c.9 1 1.79 1.9 2.49.64-.81-.01-1.8-1.96-2.49-.64zm-3.14 1.27c.49.63 1 1.27 1.28-.23-.54-.78-.93-.7-1.28.23zm-.32-7.11c-.32 1.2-.48 1.23-.64.11-.62 1.28.93 2.52 1.09 1.25a3.89 3.89 0 0 1-.45-1.36zM11.46 37.54c.13 1.29 1 2 1.49 1.88-.09-.96-1.12-2.99-1.49-1.88z"/><path class="cls-1" d="M495.19 82.49c.59.53-1.09.08-1.43 2a8.9 8.9 0 0 1 .35-2.45c.95-1.04.13 1.42 1.08.45zm-14.59 19.74a2.18 2.18 0 0 1-.38 2.08c.17-.91-.14-1.29-.58-1.1-.16-.95.69-.49.96-.98zM484 94c.16-.57 0-1.17.47-1.72a4.26 4.26 0 0 1 .25 2.15c-.43.59-.46-1-.95-.09-.07-.46.16-.52.23-.34zm3.13-8.18c-1.88-.73-3.29-.27-4.84-2.56.36-.65.76-.25.67-1 .84-.58.33.58 1 1.14.18-1.77 2.52-.12 2.11-1.58.63-1.3 1.08 2.25 1.06 4zm-4.22-.38c-.53-.45-1.28.39-1.61-1.21.87-1.56 1.08.77 1.61 1.21zm17.47-38.59c-.1-.36.22-.68.4-1-.18-1-.72-.22-.85-1.53.85-.41 1.74-1 2.11 1-.88.68-.95-.32-1.66 1.53zm-23.32 18.31c-.73-1-.87.7-1.8.58a24.54 24.54 0 0 0-.28-2.85c.62 1 2.02.94 2.08 2.27zm-55.57 7.64c.25 1.43-.65.56-.87 1.08-.28-.51-.06-1.51-.43-1a.7.7 0 0 1 0-.7l.37-.72c-.21.52.63 2.59.42 1 .38-.46.13.93.51.34zm-15.92-36.9c.45-.45 0 .93-.18.36a3.94 3.94 0 0 0 .24 2.11c-.55.45-1.15-2-.55-2.8.15.43.31.54.49.33zm-20.34 44.84c-.23.35-.25-.15-.16-.35-.45-1.14-1 1.88-1.43-.27.58-1.81 1.08-.5 1.62-.8.12.47-.26.95-.03 1.42zM401 8.88c.73-1.48 1.41-1.44 2.07-.78-.87 2-1.63 1.43-2.48 2.93-.27-2.49-1.49-1.09-2.31-2 .18.09 2.63-2.14 2.72-.15zm-2.27 2.58c-.91.31-1.75-1.41-2.7.13 0-4-2.69 1-3.85-.86 0-.59.39-1.2.22-1.78.72.29 1.4 2.05 2.21-.46 1 1.32 2.12.26 3.2.18.16.59-.32 1.2-.57 1.8.49.64 1.04-.67 1.49.99zm2.15-8.23c-.39 3.75-4.25 3.62-5 2 1.59-.31 3.84 1.25 5-2zM388 7.76a5.37 5.37 0 0 1-2 .82c.05-1.45 1.48-1.18 2-.82zm-9.07 1.94c-1.09 1.48-3.6 1.7-5.21 1.4.74-2 1.4.18 1.71-2.24.08 2.56 1.37-.5 2 1.29.66-1-.43-2.48.55-2.51-.36 1.88.1 2.27.95 2.06zm.4-3.56c0 2-1.45.4-2 .84-.33-1.32.65-.48.87-1.83.52 1.46.35 1.85 1.13.99zm-5.94 4.98a3.81 3.81 0 0 1-3.52 1.3c.61-4.42 2.44-1.95 3.52-1.3zm-17.99 4.12c-.5.35-1-.05-1.82-.22l.5-1.1c.43 1.67.92.08 1.32 1.32zm-9.4-4.56l1 2.05c-.84.6-.84-2.25-1.82-.92-.38-.9.6-.59.82-1.13zm-9.6 2.24c-.28 3.36-1-1.7-1.8 1.93a3.7 3.7 0 0 0-.35-1.39c.75-1.66 1.43-.23 2.15-.54zm-15.65.37c.43-.48.1.92-.15.36-.28.87.13 1.65.19 2.47-.54.2-1.11-1.42-1.64.15-.71-3.42-1.57-1.11-2.48-1.52-.74-.64.38-1.46-.36-2.09.94.87 1.85-.72 2.8.79.31-.62.13-1.2.47-1.82 0 1.13.72 1.74 1.17 1.66zm-26.64 3.78c-.83 1.69-1.79-1.78-2.6.29-.19-.58.24-1.21.44-1.83.76 2.09 1.4-.53 2.16 1.54zM277 16.5c0 1.34-2 1.67-2.1.59.64-.31 1.37.41 2.1-.59zm-16 8.98a26.49 26.49 0 0 1-.43-2.79c.42-.51.87-.1 1.32.55-.28 1.23-.65 0-1 .12-.27.75 1.11.64.11 2.12zm-62.6-2.14c.2 1.89-1.14.64-1.53 1.63-.18-.21-.11-.45 0-.7l.28-.75c.45.99.85-.23 1.25-.18zm-48.97 132.09c-.86.41-1.78 0-2.62.78-.5-2.05-1.59-.89-2.4-.7-.12-.34 0-.71-.23-1a.74.74 0 0 0-.05-.71c1.87 1.2 3.48.2 5.3 1.63zM103.57 16.27c-.91-.8.06-1.91-.86-2.72.15-.24.32 0 .46-.43l.37.65c-.78.97.81 1.55.03 2.5zm-7.07 2.95c-.75 2.16-.1-2.74-.94-1.64-.39-1.22.63-1.38 1-.16a1.72 1.72 0 0 0-.06 1.8z"/></g></svg>