<svg xmlns="http://www.w3.org/2000/svg" viewBox="0 0 264.09 26.56"><path d="M4 1.21a.7.7 0 0 1 1.07-.5c1 .42 2 .88 3 1.37.31.15.41.34.3.58a2.34 2.34 0 0 1-.46.19 2.63 2.63 0 0 0-1.1.52 15.14 15.14 0 0 1-2.3 1.42c-.43.24-.36.48.22.74a4.94 4.94 0 0 1 1 .76c.24.38.54.29.91-.27s.53-.92.84-1.4c.44-.62.91-.83 1.52-.49l2.36 1.42c.56.4.83.69.82.85s-.3.3-.66.36a2.58 2.58 0 0 0-1.07.54q-2.5 2-5 3.78c-.4.31-.33.44.22.41l2.79-.11q.66 0 .36-.69c-.31-.43-.46-.72-.44-.87s.39-.18 1 0a9.93 9.93 0 0 1 2 1 2.93 2.93 0 0 1 1.56 2 2.19 2.19 0 0 1-.08 1.66 1.87 1.87 0 0 1-1.48 1.15 1.62 1.62 0 0 1-1.48-1 4.65 4.65 0 0 1-.24-1.56c-.07-.47-.27-.63-.6-.46a.85.85 0 0 0-.49.87v2c0 .44.27.78.82 1q3 1 3.36 3a2.32 2.32 0 0 1-.14 1.61 1.69 1.69 0 0 1-2.35.77 1.89 1.89 0 0 1-1-1.26l-.41-2.13c-.22-.57-.32-.56-.32 0v6.68a.88.88 0 0 1-.83.95l-2.26.28q-.93.13-.93-.6v-4.72c0-.59-.16-.64-.47-.17a11.79 11.79 0 0 1-3 3.26c-.55.38-.86.54-.93.49s0-.42.19-1a26.94 26.94 0 0 0 1.45-6.9c.07-.6.36-.83.85-.71l1.2.3c.46.13.69 0 .69-.46v-.66c0-.43-.28-.57-.82-.41a3.13 3.13 0 0 0-1.86 1c-.48.42-.77.33-.88-.28Q.5 14.17.23 12.8c-.14-.62.08-1 .69-1L2 11.73a1.91 1.91 0 0 0 1.28-.84l.39-.5c.38-.49.31-.81-.22-1a2.12 2.12 0 0 1-1.14-2.2 3.7 3.7 0 0 0-1-1.86c-.41-.45-.6-.74-.5-.87s.45-.09 1 0A.9.9 0 0 0 3 3.94c.38-.94.71-1.82 1-2.73zm19.1.27a.9.9 0 0 1 1.47-.11c.46.37.91.76 1.37 1.18.62.54.85 1 .68 1.23s-.48.38-1 .38h-4.13a.59.59 0 0 0-.68.66v19c0 .45.15.68.46.68s.73-.27 1.21-.82l.9-1.09a1 1 0 0 1 1.56-.11l1.37 1.15c.67.58.91 1 .71 1.23a1.35 1.35 0 0 1-1.1.38H11.38q-.83 0-1-.3c-.13-.29.06-.44.55-.44h4.48c.46 0 .69-.22.69-.65v-19a.59.59 0 0 0-.66-.68h-2.75c-.55 0-.88-.13-1-.38s.11-.39.66-.39h8.53a1.83 1.83 0 0 0 1.34-.82zM54 1c.4-.5.87-.51 1.42-.06l1.88 1.61c.48.42.62.74.44 1a1.44 1.44 0 0 1-1.15.38H48a.59.59 0 0 0-.68.66V12c0 .46.22.68.66.68h2.7a1.91 1.91 0 0 0 1.37-.82c.35-.45.72-.91 1.12-1.36s.93-.46 1.53 0l1.64 1.37c.61.51.81.88.61 1.12a1.48 1.48 0 0 1-1.15.41H48c-.45 0-.68.22-.68.65v9.74a.59.59 0 0 0 .66.68h5a1.85 1.85 0 0 0 1.34-.82l1.07-1.36a.92.92 0 0 1 1.47-.2l1.94 1.64c.59.5.77.86.55 1.1a1.57 1.57 0 0 1-1.17.38h-24q-.83 0-1-.3c-.11-.29.09-.44.58-.44h8c.46 0 .69-.22.69-.65v-9.71a.59.59 0 0 0-.66-.68H36c-.55 0-.89-.13-1-.38s.16-.39.71-.39h6.09c.46 0 .69-.22.69-.65V4.6q0-.69-.66-.69h-7.19q-.82 0-1-.3c-.13-.29.06-.44.55-.44h17.29a1.93 1.93 0 0 0 1.37-.82c.34-.45.72-.91 1.15-1.35zm-4.52 14.26q.17-.3 1 0a12 12 0 0 1 4.07 2.08 3.24 3.24 0 0 1 .82 2.19A2.7 2.7 0 0 1 53.75 22c-1.3.53-2.18 0-2.65-1.56l-.33-2.19a6.71 6.71 0 0 0-.77-1.9c-.47-.52-.63-.89-.52-1.09zM69.41 1.21a.7.7 0 0 1 1.06-.5c1 .42 2 .88 3 1.37.31.15.41.34.3.58a2.34 2.34 0 0 1-.46.19 2.63 2.63 0 0 0-1.1.52 15.56 15.56 0 0 1-2.29 1.42c-.44.24-.37.48.21.74a4.94 4.94 0 0 1 1 .76c.24.38.54.29.91-.27s.53-.92.84-1.4c.39-.67.86-.83 1.42-.49l2.36 1.42c.56.4.83.69.82.85s-.3.3-.66.36a2.58 2.58 0 0 0-1.07.54q-2.51 2-5 3.78c-.4.31-.33.44.22.41l2.79-.11q.66 0 .36-.69c-.31-.43-.46-.72-.44-.87s.39-.18 1 0a9.93 9.93 0 0 1 2 1 2.93 2.93 0 0 1 1.56 2 2.19 2.19 0 0 1-.08 1.66 1.87 1.87 0 0 1-1.48 1.15 1.6 1.6 0 0 1-1.47-1 4.4 4.4 0 0 1-.25-1.56c-.07-.47-.27-.63-.6-.46a.85.85 0 0 0-.49.87v2c0 .44.27.78.82 1q3 1 3.36 3a2.32 2.32 0 0 1-.14 1.61 1.69 1.69 0 0 1-2.35.77 1.89 1.89 0 0 1-1-1.26l-.41-2.13c-.22-.57-.32-.56-.32 0v6.68a.88.88 0 0 1-.82.95l-2.27.28q-.93.13-.93-.6v-4.72c0-.59-.16-.64-.47-.17a11.79 11.79 0 0 1-3 3.26c-.55.38-.86.54-.93.49s0-.42.19-1a26.94 26.94 0 0 0 1.45-6.9c.07-.6.36-.83.85-.71l1.2.3c.46.13.69 0 .69-.46v-.66c0-.43-.28-.57-.82-.41a3.13 3.13 0 0 0-1.86 1c-.48.42-.77.33-.88-.28q-.36-1.37-.63-2.73c-.14-.62.08-1 .69-1l1.09-.06a1.91 1.91 0 0 0 1.28-.84l.39-.5c.38-.49.31-.81-.22-1a2.12 2.12 0 0 1-1.15-2.25 3.7 3.7 0 0 0-1-1.86c-.45-.45-.64-.74-.54-.87s.45-.09 1 0a.9.9 0 0 0 1.2-.57c.44-.84.77-1.72 1.07-2.63zm18.1.27A.9.9 0 0 1 89 1.37c.46.37.91.76 1.37 1.18.62.54.85 1 .68 1.23s-.48.38-1 .38h-4.16a.59.59 0 0 0-.68.66v19c0 .45.15.68.47.68s.72-.27 1.2-.82l.9-1.09a1 1 0 0 1 1.56-.11l1.37 1.15c.67.58.91 1 .71 1.23a1.35 1.35 0 0 1-1.1.38H75.78q-.82 0-1-.3c-.13-.29.06-.44.55-.44h4.48c.46 0 .69-.22.69-.65v-19a.59.59 0 0 0-.66-.68h-2.75c-.55 0-.88-.13-1-.38s.11-.39.66-.39h8.53a1.83 1.83 0 0 0 1.34-.82zm24.76-.11c0-.56.27-.83.82-.79s1.27.06 1.94.13a7.93 7.93 0 0 1 2.35.28c.37.34.27.62-.3.82-.22.11-.33.43-.33.95a.75.75 0 0 0 .85.85 2 2 0 0 0 1.56-.82L120 1.7a.94.94 0 0 1 1.51-.08c.45.36.91.75 1.37 1.17.61.55.83 1 .65 1.2a1.27 1.27 0 0 1-1.06.36h-5.06q-.69 0-.69.66v1.36a.84.84 0 0 1-.82.93l-1.9.25a1.29 1.29 0 0 0-.55.22 3.16 3.16 0 0 0-.68.3c-.09.09.14.27.68.55a34.75 34.75 0 0 0 9.6 2.13c.58.05.87.17.87.35s-.26.59-.79 1.1A7.86 7.86 0 0 0 122 15c-.13.58-.41.8-.85.66s-.68-.16-.68-.09c.54.3.65.59.33.88a1.23 1.23 0 0 1-1 .41h-6.54a.59.59 0 0 0-.68.66v7.71a.88.88 0 0 1-.82.95c-1 .11-2 .25-3.07.41a.65.65 0 0 1-.82-.73V17.5c0-.45-.21-.68-.65-.68H101c-.55 0-.88-.13-1-.38s.14-.39.69-.39h6.45c.46 0 .68-.22.68-.65v-2.63a.7.7 0 0 1 .82-.79l4.13.33a2.46 2.46 0 0 1 .91.33c.12.27-.11.58-.71.93a.85.85 0 0 0-.44.87v.93c0 .46.22.68.65.68h2a2 2 0 0 0 1.4-.82c.53-.63.55-1.08.08-1.34a13 13 0 0 1-4.84-4c-.33-.43-.76-.42-1.31 0a28.37 28.37 0 0 1-11.7 5.33c-.64.13-1 .13-1.1 0s.19-.3.8-.63a26 26 0 0 0 7.73-6.45c.35-.4.23-.57-.35-.52l-1.78.22q-.93.11-.93-.63V5a.59.59 0 0 0-.66-.68h-3.73q-.83 0-1-.3c-.12-.29.06-.44.55-.44h4.16c.45 0 .68-.22.68-.65V1.37c0-.55.27-.8.82-.77l3 .17a3.89 3.89 0 0 1 1.23.24c.31.32.22.56-.27.74a1.08 1.08 0 0 0-.44 1c0 .55.22.82.65.82h3.4c.45 0 .68-.22.68-.65zm-10.34 17.36c.2-.6.56-.83 1.07-.71l4.07.93a.71.71 0 0 1 .61.41.88.88 0 0 1-.77.69 1.61 1.61 0 0 0-.55.43 25.77 25.77 0 0 1-7.24 5c-.64.33-1 .43-1.15.3s.14-.41.65-1a17.6 17.6 0 0 0 3.31-6.05zm10.34-13.64c0-.49-.2-.74-.6-.74h-3.45a.59.59 0 0 0-.68.66v.84q0 .69.27.33c.15-.18.49-.23 1-.13l2.76.43q.66.09.66-.57zm1.42 13c.13-.13.45-.14 1-.05a34 34 0 0 1 4.07 1.15c2 .72 3.07 1.89 3.15 3.5a3 3 0 0 1-1.12 2.16 1.89 1.89 0 0 1-2.19.21 3.1 3.1 0 0 1-1.42-2.05 8.92 8.92 0 0 0-2.68-4.1c-.63-.43-.88-.71-.81-.78zM141.14.3c1.21-.56 1.67-.33 1.4.69v19.43a8.84 8.84 0 0 0 .22 1.25 1.59 1.59 0 0 0 1.6 1.13c.75.06 1.12.19 1.12.37s-.34.25-1 .25H134.2c-.63 0-.95-.08-1-.25s.34-.29 1-.31a2.1 2.1 0 0 0 2.34-1.72l.13-.81V5.74c-.13-1.73-1-2.37-2.63-1.91q-.93.22-.93 0c-.05-.16.25-.36.87-.59A57.42 57.42 0 0 0 141.14.3zm15.2.09a7.9 7.9 0 0 1 5.35.5 4.75 4.75 0 0 1 2.62 3.72c.23 1.65-.54 3.26-2.31 4.85-.5.45-.45.93.16 1.43a8.46 8.46 0 0 1 2.84 4.66 6.7 6.7 0 0 1-1.5 5.75 7.35 7.35 0 0 1-6.81 2.31 6.21 6.21 0 0 1-4.72-3q-2.22-4.59 2.72-7.78c.5-.29.41-.67-.25-1.15q-4.5-3.68-2.6-7.82a6.43 6.43 0 0 1 4.5-3.47zm4.53 19c-.2-2.08-1.53-4-4-5.84-.5-.33-1-.17-1.44.5a11 11 0 0 0-.5 6 3.56 3.56 0 0 0 1.44 2.44 3.13 3.13 0 0 0 2.59.21c1.41-.5 2.04-1.6 1.91-3.31zm-3.09-18.31a2.12 2.12 0 0 0-2.06 1.5q-.69 3.34 3.37 6.06c.65.44 1.11.35 1.38-.28a8.25 8.25 0 0 0 .47-2.4 7.59 7.59 0 0 0-.41-3.29 2.38 2.38 0 0 0-2.75-1.59zm30.56.4c0-.55.27-.81.8-.79l3 .24c.71.11 1.12.25 1.21.41s-.15.37-.5.6a.83.83 0 0 0-.46.74c0 .33.22.49.66.49h.52c.47.22 1-.14 1.66-1.09a1.08 1.08 0 0 1 1.59 0l.55.41c.62.48.85.84.71 1.1a1.23 1.23 0 0 1-1 .35h-4c-.45 0-.68.29-.68.88s.22.9.66.9h.87a1.55 1.55 0 0 0 1.2-.66c.39-.41.87-.41 1.45 0l2.19 1.64a.7.7 0 0 1 .19.93 1.44 1.44 0 0 1-1.2.22 2.53 2.53 0 0 0-1.42.36c-.42.29-.54.52-.36.68s.31.37.22.52-.48.35-1.12.41l-2.16.25c-.51 0-.77.26-.77.62-.09.81.22 1.11.93.91a21 21 0 0 0 2.22-.06 2.41 2.41 0 0 0 1-1.39c.18-.64.37-1 .55-1s.25.27.33.82a1.62 1.62 0 0 0 .95 1.56q.53.16.36.9a2.16 2.16 0 0 1-1.86 2h-6.89a1.65 1.65 0 0 1-1.48-1.39v-1.8c0-.44-.23-.65-.71-.63a.73.73 0 0 0-.71.77v3.28a16.25 16.25 0 0 1-4.21 10.77q-.79.8-1 .66c-.11-.09-.07-.41.11-1a29.59 29.59 0 0 0 1-7.41c0-.44-.08-.58-.3-.44a1.11 1.11 0 0 0-.46.82 30.74 30.74 0 0 1-1.32 6.38q-.08.48-.9.9a8.2 8.2 0 0 1-3.09.54.76.76 0 0 1-.87-.82 2.53 2.53 0 0 0-1.34-2.48c-.33-.15-.49-.29-.49-.41s.26-.33.79-.33h2c.44 0 .72-.28.85-.82a39 39 0 0 0 .55-4c0-.46-.13-.69-.5-.69s-.67.28-.87.82c-.24.7-.63 1-1.18 1h-1.51c-.55 0-.76-.27-.63-.82.34-1.53.73-3.07 1.15-4.62.12-.51 0-.77-.39-.77h-.57c-.55 0-.88-.12-1-.38s.1-.38.65-.38H179a2 2 0 0 0 1.39-.82c.55-.6 1.09-.69 1.62-.25s.84.46.84 0V4.79c0-.55.28-.71.82-.49l1.92.82a3.44 3.44 0 0 0 2 .57c.48 0 .71-.22.71-.66zm-9.21.08a1.12 1.12 0 0 1 1.45-.08c.44.27.87.57 1.31.9s.76.7.74.77l-.38.33c-.19.1-.28.38-.28.82v3.8a.85.85 0 0 1-.82.93l-1.72.21c-.62.1-.93 0-.93-.32s-.22-.6-.66-.6-.68.17-.68.51-.27.58-.82.69l-1.67.27c-.58.11-.87-.11-.87-.65V1.92c0-.55.27-.73.82-.55a6.17 6.17 0 0 0 3.25.71 1.89 1.89 0 0 0 1.26-.52zm-.63 1.94a.67.67 0 1 0-1.34 0v3.34a.59.59 0 0 0 .66.68c.45 0 .68-.22.68-.65zm4.37 9.24c0-.47-.21-.71-.62-.71h-3.07c-.43 0-.75.28-1 .82l-.61 1.92c-.2.58-.16.87.11.87a2.34 2.34 0 0 0 1.21-.71 1.25 1.25 0 0 1 1.58 0l1.72 1.07c.44.27.67.14.68-.41zm4.27 3.53c0-.62.25-.91.77-.87 1 0 2 .11 3 .22a2 2 0 0 1 1 .16c.18.24.08.47-.32.71a1.25 1.25 0 0 0-.5 1.09 11 11 0 0 1-.84 4.27 6.12 6.12 0 0 1-1.72 2.15 11.74 11.74 0 0 1-3.53 1.92 2.31 2.31 0 0 1-1 .22c-.11-.11.07-.43.52-.95a8.88 8.88 0 0 0 2.27-4.38 41.38 41.38 0 0 0 .35-4.54zm7.36-9.21c.09-.4-.08-.6-.5-.6h-6.5c-.46 0-.69.21-.69.65v2.11c0 .44.24.64.71.6a.72.72 0 0 0 .71-.77V7.52a.7.7 0 0 1 .82-.79l3 .22a.82.82 0 0 1 .85.41c.05.18-.11.36-.49.55-.19.07-.28.31-.28.71s.1.61.3.62.53-.23.93-.65c.78-.66 1.15-1.17 1.14-1.53zm-2.22 9.32a.69.69 0 0 1 .82-.79l2.46.16a.6.6 0 0 1 .63.33c.07.16-.07.33-.44.49-.14.06-.22.3-.22.74v4.24a1.93 1.93 0 0 0 .09.79.34.34 0 0 0 .46.19 2.72 2.72 0 0 0 1-2c.13-.55.23-.82.33-.82s.25.26.27.77a2.17 2.17 0 0 0 .93 2.05q.36.16.27.93a2.85 2.85 0 0 1-1.12 2.29 3.63 3.63 0 0 1-1.31.19h-2c-1.09.24-1.79-.28-2.08-1.55zm22.9-15.09c0-.59.27-.86.8-.82 1.34.05 2.69.13 4 .24a2.12 2.12 0 0 1 .63.28c.17.33 0 .55-.46.68a.7.7 0 0 0-.44.71c0 .37.22.55.66.55H225c.49.22 1.13-.26 1.91-1.42.5-.59 1-.66 1.53-.22s.88.68 1.32 1.06.63.7.49.93a1.33 1.33 0 0 1-1.15.44h-8.67a.59.59 0 0 0-.68.66V5a.59.59 0 0 0 .66.68h2.4c.44.16 1-.14 1.75-.9a1.29 1.29 0 0 1 1.64-.25c.73.46 1.46.94 2.19 1.45.51.44.77.7.77.79a.84.84 0 0 1-.66.5c-.27.11-.41.38-.41.82v4.29a.88.88 0 0 1-.82 1 17.33 17.33 0 0 0-1.72.24c-.57.08-.51.2.19.39 2.08.6 2.81 1.61 2.21 3a1.79 1.79 0 0 1-1 .85c-.29.07-.71-.17-1.26-.74a13.83 13.83 0 0 0-.87-1.09 1.44 1.44 0 0 0-1.4-.5L209 18.43c-.49.09-.76.19-.79.28s.13.21.57.21h10.42c.46 0 .69-.21.69-.65v-1.12a.7.7 0 0 1 .82-.8c1.36.08 2.73.18 4.1.31a.82.82 0 0 1 .63.38c.05.24-.1.44-.47.6a.74.74 0 0 0-.38.68q0 .6.66.6h.75c.51.22 1.14-.25 1.89-1.42a1 1 0 0 1 1.53-.22l1.31 1.07c.48.4.62.72.44 1a1.35 1.35 0 0 1-1.09.35h-4.82a.59.59 0 0 0-.68.66v4.26a2.2 2.2 0 0 1-2.19 1.78 8.54 8.54 0 0 1-2 .19 1 1 0 0 1-1-.82 3.83 3.83 0 0 0-2.18-2.59c-.55-.22-.82-.39-.82-.5s.27-.19.82-.19h2c.46 0 .69-.22.69-.65v-1.49q0-.69-.66-.69h-13.49c-.55 0-.88-.1-1-.3s0-.44.54-.44h1.29c.43 0 .58-.27.43-.82l-.65-2.16c-.2-.56 0-.85.55-.87l7.57-.16a.62.62 0 0 0 .68-.69v-.76c0-.46-.22-.69-.65-.69h-2.38c-.46 0-.69.16-.69.47s-.27.54-.82.65c-.91.11-1.82.25-2.73.41-.55.06-.82-.19-.82-.73V5.12c0-.55.27-.74.82-.58l1.91.6a8.71 8.71 0 0 0 4.68.55.59.59 0 0 0 .68-.66v-.62c0-.46-.22-.69-.65-.69h-7.8c-.54 0-.87-.13-1-.38s.11-.41.66-.41h8.09a.59.59 0 0 0 .68-.66zm-5 19c.13-.14.45-.16 1-.05a12.71 12.71 0 0 1 3 1.15 2 2 0 0 1 1.1 2.1 2.06 2.06 0 0 1-2.08 1.86 1.6 1.6 0 0 1-1.48-1l-.46-2.19a6.31 6.31 0 0 0-.44-.85c-.52-.59-.73-.93-.64-1.02zm5-13.12c0-.48-.21-.71-.63-.71h-2.4c-.46 0-.69.21-.69.65v1.07a.59.59 0 0 0 .66.68h2.38c.45 0 .68-.22.68-.65zm0 3.14c0-.45-.22-.68-.65-.68h-2.38c-.46 0-.69.22-.69.65v1.07c0 .46.22.68.66.68h2.38c.45 0 .68-.21.68-.65zm8.32-3.14c0-.48-.21-.71-.63-.71h-2.44c-.45 0-.68.21-.68.65v1.07a.59.59 0 0 0 .66.68h2.4c.46 0 .69-.22.69-.65zm0 3.14a.59.59 0 0 0-.66-.68h-2.41c-.45 0-.68.22-.68.65v1.07c0 .46.22.68.66.68h2.4c.46 0 .69-.21.69-.65zm0 2.85q0-.39-.63-.39h-2.46a.59.59 0 0 0-.68.66v.65q0 .69.66.69l2.27-.06c.49 0 .43-.19-.17-.57s-.95-.65-.87-.74a2 2 0 0 1 1 0q.87.06.9-.24zm14.67-11.68c0-.55.27-.7.82-.47l3 1.34a2.75 2.75 0 0 0 2 .31c.51.21 1-.15 1.53-1.1a1.07 1.07 0 0 1 1.5-.27c.73.42 1.46.86 2.19 1.34.67.25.74.62.19 1.09a1.37 1.37 0 0 0-.52 1v7a.85.85 0 0 1-.82.93l-2.46.27c-.55.05-.82-.19-.82-.74v-.35q0-.69-.66-.69H243q-.69 0-.69.66v13.4a.87.87 0 0 1-.82.95c-.83.08-1.67.18-2.51.3-.55.06-.82-.19-.82-.73zm6.59 2.57c0-.46-.22-.68-.66-.68H243c-.46 0-.69.21-.69.65v1.86q0 .69.66.69h1.09q.69 0 .69-.66zm0 4a.59.59 0 0 0-.66-.68H243q-.69 0-.69.66v1.65q0 .69.66.69h1.09q.69 0 .69-.66zm5.66-6.45c0-.6.24-.79.74-.57l3 1.31a2.69 2.69 0 0 0 2 .36c.49.21 1-.15 1.61-1.1.53-.6 1.07-.74 1.61-.41 1 .59 2 1.2 3 1.86.24.24.11.52-.38.85a1.05 1.05 0 0 0-.49.93v19.34a2.25 2.25 0 0 1-1.51 1.89 8.27 8.27 0 0 1-2.46.47.92.92 0 0 1-1-.8 6.18 6.18 0 0 0-.77-1.91 4.19 4.19 0 0 0-1.45-1c-.6-.2-.9-.34-.9-.43s.3-.19.85-.19h2.19a.59.59 0 0 0 .68-.66v-9.72q0-.69-.66-.69h-1.2a.6.6 0 0 0-.68.69c0 .47-.28.75-.82.84q-1.23.13-2.49.36c-.55.05-.82-.19-.82-.74zm6.67 2.49c0-.46-.22-.68-.66-.68h-1.2c-.46 0-.68.21-.68.65v1.82c0 .46.22.69.65.69h1.21a.59.59 0 0 0 .68-.66zm0 4a.59.59 0 0 0-.66-.68h-1.2c-.46 0-.68.22-.68.66v1.61c0 .46.22.69.65.69h1.21a.59.59 0 0 0 .68-.66z" fill="#eb6624" data-name="圖層 2"/></svg>