<svg xmlns="http://www.w3.org/2000/svg" viewBox="0 0 415.93 41.46"><path d="M12 7v4H0V7zm-1 16v12H5v2H1V23zM1 16v-4h10v4zm0 5v-3h10v3zM11 1v4H2V1zM8 27H5v4h3zm22.76.11l2.17 2.13a21.1 21.1 0 0 1-3.71 2.06 12.4 12.4 0 0 0 4.48 2.06 8.92 8.92 0 0 0-2.17 3.07 13.19 13.19 0 0 1-7.06-5.09l.21 2.85-4.81.87q-4 .72-5.76 1l-1-3.29 1.42-.21 1.47-.21v-1.92c-1.17.49-2.21.87-3.15 1.16a19 19 0 0 0-1.92-2.75A28.83 28.83 0 0 0 16.56 27H12v-3h5v-1h-3v-3h3v-1h-4v-3h4v-2h-4V7h9v7h-1v2h4v-2h-2V7h9v7h-3v2h4v3h-5v1h4v3h-4v1h5v3h-7.24a10.15 10.15 0 0 0 1.47 2.35c.42-.24 1.6-.99 3.53-2.24zM33 3v3H12V3h8V1h4v2zm-16 9h2v-2h-2zm3 16.64V32c.42-.08 1.17-.2 2.24-.36l2.45-.37a18.91 18.91 0 0 1-2-4.3h-.6A15.09 15.09 0 0 1 20 28.64zM21 19v1h4v-1zm0 4v1h4v-1zm6-13v2h2v-2zm48.56 7.17L79 18.76a34.51 34.51 0 0 1-5.44 7.72q1.44 4.35 2.88 4.35c.68 0 1.1-2 1.25-5.86a9 9 0 0 0 3.19 2.41q-.45 4.52-1.48 6.12a3.66 3.66 0 0 1-3.31 1.6c-2.24 0-4.11-1.86-5.63-5.58a34.07 34.07 0 0 1-6.07 4.31 15.34 15.34 0 0 0-2.59-3.38 32.79 32.79 0 0 0 7.32-5A65.71 65.71 0 0 1 67.44 16H59v4.46l2.55-.58c1.14-.25 2-.43 2.56-.53l.32 4.23L59 24.87v6.67a8.23 8.23 0 0 1-.41 3 2.91 2.91 0 0 1-1.41 1.58q-1.7 1-6 .88a19.11 19.11 0 0 0-1.4-4.69 36.38 36.38 0 0 0 4.39 0 .71.71 0 0 0 .81-.8V24.9c-.65.11-1.73.32-3.25.62l-3.35.65-1.09-4.24Q51 21.38 55 20.72V16h-7v-4h7V7.44q-2.09.39-5.33.87a19.51 19.51 0 0 0-1.14-4A63.33 63.33 0 0 0 61.76.92L64.43 5A55.44 55.44 0 0 1 59 6.58V12h6.37Q65.05 7.37 65 1h4.17c-.07 3.54 0 7.2.32 11H80v4h-8.5q.38 3.24.93 6a31.58 31.58 0 0 0 3.13-4.83zm4.15-9.42l-3.49 2.63a21.3 21.3 0 0 0-2.17-3.18A30.72 30.72 0 0 0 71.1 4l3.25-2.4a29.73 29.73 0 0 1 5.36 6.15zM114 3v15h-6v19h-4V2.61a22.24 22.24 0 0 1-3 6.74V37h-4V17.68a29.2 29.2 0 0 1-2.26 3.17 24.8 24.8 0 0 0-2.11-4.94Q97.25 10.32 99.9 1l4 1.25-.21.75zm-3 3h-3v2h3zm-3 8h3v-2h-3zm19-12v29.09a7.9 7.9 0 0 1-.43 3 2.84 2.84 0 0 1-1.48 1.53c-1.12.55-3.43.83-7 .83a15.23 15.23 0 0 0-1.29-4.49 46.72 46.72 0 0 0 5.23.08c.61 0 .92-.32.92-1V17h-7V2zm-5 4h-3v2h3zm-3 8h3v-2h-3zm36-7v4h-14V7zm-2 16v12h-7v2h-4V23zm0-11v4h-11v-4zm-11 9v-3h11v3zm11-20v4h-11V1zm-3 26h-4v4h4zm16-15h8v3h-19v-3h8v-2h-7V7h7V6h-8V3h7V1h4v2h8v3h-8v1h7v3h-7zm6 5v15.56a6.44 6.44 0 0 1-.33 2.33 2.38 2.38 0 0 1-1.21 1.23c-.85.43-2.58.64-5.2.64a13.16 13.16 0 0 0-1.08-3.67h3.26c.37 0 .56-.2.56-.61V30h-7v7h-4V17zm-4 3h-7v2h7zm-7 7h7v-2h-7zM195.38.82l3.94 1.37a62 62 0 0 1-3.32 8V37h-4V17.08c-.8 1.19-1.57 2.25-2.32 3.16a23.24 23.24 0 0 0-1-2.42 24.92 24.92 0 0 0-1.26-2.41A35.31 35.31 0 0 0 192 8.83a44.51 44.51 0 0 0 3.38-8.01zM216.53 12H212v18.55a8 8 0 0 1-.33 2.56 2.58 2.58 0 0 1-1.22 1.44 10.7 10.7 0 0 1-5 .85 13.72 13.72 0 0 0-1.38-4.4h3.28a.65.65 0 0 0 .65-.65V12h-3.93a32 32 0 0 1-3.18 5.52 20.26 20.26 0 0 0-3.24-2.83q3.78-4.5 5.75-13l3.94.92q-.53 2.26-1.59 5.42h11.64l.63-.14 2.84.56c-.42 3.19-.9 6-1.46 8.43l-3.4-.64c.22-1.49.4-2.89.53-4.24zM202 17.81l4.2 1a40.37 40.37 0 0 1-4.91 13 19.71 19.71 0 0 0-3.7-2.52q2.91-3.98 4.41-11.48zm11.51 1l3.81-1.41a51.73 51.73 0 0 1 2.47 6.51 41.89 41.89 0 0 1 1.48 6.21l-4.13 1.52a39.63 39.63 0 0 0-1.3-6.21 53.66 53.66 0 0 0-2.35-6.59zm26.28 22.65l-1.2-3.17a7.33 7.33 0 0 0 3.21-2.21A5.06 5.06 0 0 0 243 33h-.21a3.44 3.44 0 0 1-1.84-.47 3.3 3.3 0 0 1-1.62-3 3.21 3.21 0 0 1 1-2.45 3.43 3.43 0 0 1 2.44-.94 3.24 3.24 0 0 1 2.84 1.51 7.35 7.35 0 0 1 1 4.13 10.08 10.08 0 0 1-1.79 6 10.22 10.22 0 0 1-5.03 3.68zM283.32 19h13.17v1.59q-.24 7.45-.59 10.65a10.74 10.74 0 0 1-1 4.17 3.61 3.61 0 0 1-2.44 1.44 22.66 22.66 0 0 1-3.91.08 8.62 8.62 0 0 0-.42-2.15 5.34 5.34 0 0 1-1.71.22h-5.13c-1.72 0-2.86-.32-3.42-1s-.85-1.84-.85-3.62v-3.8c-1.26 1.05-2 1.67-2.34 1.87a16.25 16.25 0 0 0-1-1.5H269v3h-4V4h10v18.56a19.87 19.87 0 0 0 4.53-6.56H278V2h18v14h-11.69c-.31.87-.99 3-.99 3zM272 22V8h-3v14zm10.37 9h3.52a.93.93 0 0 0 .92-.42 6.09 6.09 0 0 0 .28-1.93 7.28 7.28 0 0 0 3.24 1.44 8.37 8.37 0 0 1-.85 3.11 7.34 7.34 0 0 0 .88 0 1.29 1.29 0 0 0 1.09-.49c.52-.74.88-4.32 1.1-10.75H281l-.46 1h.46v2.76a22.33 22.33 0 0 0 5.39-2.62l2.95 2.62A36.13 36.13 0 0 1 281 29v.83c0 .51.08.83.25 1a1.93 1.93 0 0 0 1.12.17zM281 6v2h10V6zm0 5v2h10v-2zm55 2.83l1.44-1.39a39.56 39.56 0 0 1 7.37 8l-3.06 3.12a34.75 34.75 0 0 0-5.75-7V36h-4V18.53a33.21 33.21 0 0 1-6.94 6.59 26.73 26.73 0 0 0-2.72-3.69v.07l-.14-.3a25.76 25.76 0 0 0-2.2-2.93V37h-4V21.9a34.11 34.11 0 0 1-3.92 8.44A23.47 23.47 0 0 0 310 26a26.84 26.84 0 0 0 3.18-5.82 43.57 43.57 0 0 0 2.35-7.18H311V8h5V0h4v8h4v5h-4v.58c1.38 1.41 2.73 2.92 4.07 4.54L322.33 21A27.33 27.33 0 0 0 332 8h-8V4h20v4h-6.42c-.35.93-.88 2.14-1.58 3.63zM386 26h-10v11h-4V26h-9v-4c-1.71.8-2.9 1.32-3.59 1.56a15.33 15.33 0 0 0-2.17-4.19 31.71 31.71 0 0 0 8.53-4.31A25.21 25.21 0 0 0 372 9h4.45a26 26 0 0 0 7 6.23A31.05 31.05 0 0 0 392 18.9a18.38 18.38 0 0 0-2.45 4.39 30.62 30.62 0 0 1-3.55-1.48zm-20-15V8h-7V4l7-1V1h4v2h9V0h4v4h7v4h-7v3h-4V8h-9v3zm-.73 15.53l4.48 1.37a22.8 22.8 0 0 1-3.21 4.65 25 25 0 0 1-4.09 3.77 18 18 0 0 0-3.78-3.09 18 18 0 0 0 3.83-3 14.72 14.72 0 0 0 2.77-3.7zm-.72-5.53H372v-4h4v4h8.13q-6.83-3.69-10-8.24-2.87 4.44-9.58 8.24zm14.73 7.78l3.5-2.36a45.21 45.21 0 0 1 7.34 6.93l-3.74 2.7a44.79 44.79 0 0 0-7.1-7.27zM415 32.91a3.27 3.27 0 0 1-4.8 0 3.76 3.76 0 0 1-.95-2.65 3.82 3.82 0 0 1 .95-2.66 3.23 3.23 0 0 1 4.8 0 3.82 3.82 0 0 1 .95 2.66 3.76 3.76 0 0 1-.95 2.65zM410.84 24l-.78-14.57-.14-5.43h5.35l-.14 5.43-.78 14.57z" fill="#2b4a27" data-name="圖層 2"/></svg>